<svg width="180" height="64" viewBox="0 0 180 64" fill="none" xmlns="http://www.w3.org/2000/svg">
<g clip-path="url(#clip0_756_782)">
<path d="M176.673 61.2478C150.175 57.0817 118.594 53.9789 87.8478 54.5107C63.246 54.936 39.1845 57.6384 18.7076 63.9439H18.6708C17.3449 64.1878 14.4047 63.6061 12.6124 62.7866C12.18 62.6071 11.7765 62.3625 11.4154 62.061C11.2632 61.9599 11.1439 61.8149 11.0728 61.6444C11.0018 61.474 10.9821 61.2858 11.0165 61.1039C11.108 60.8191 11.3067 60.5829 11.5689 60.4471H11.6057C29.3327 53.9414 59.9928 50.9263 91.2054 51.0014C123.885 51.0514 157.166 54.4919 176.777 60.7661L180 61.7982L176.673 61.2478Z" fill="black"/>
<path d="M155.836 33.216C158.843 32.4536 161.902 31.9129 164.989 31.5983C167.187 31.3577 169.407 31.3924 171.597 31.7017C173.324 31.9936 174.812 32.5105 175.52 33.3558C175.632 33.4894 175.73 33.6341 175.813 33.7876C175.955 34.1602 176.017 34.558 175.996 34.9559C175.975 35.3537 175.871 35.7429 175.691 36.0985C175.247 37.0443 174.591 37.8763 173.775 38.5311C173.004 39.1954 172.141 39.7463 171.212 40.167C167.931 41.7424 164.525 43.0462 161.029 44.0652C156.952 45.1506 152.758 45.7408 148.539 45.8227C146.306 45.8896 143.56 45.7193 141.778 45.0261C141.137 44.8402 140.568 44.4623 140.149 43.9436C139.966 43.691 139.858 43.3913 139.84 43.0799C139.822 42.7685 139.893 42.4584 140.046 42.186C140.438 41.4196 141.006 40.7568 141.705 40.2521C141.223 40.3738 140.772 40.4954 140.308 40.6292C137.8 41.3407 134.06 43.0131 129.099 43.2503C124.566 43.4753 120.502 42.8063 114.657 42.4597C113.254 42.3928 111.905 42.3016 110.746 42.2712C109.587 42.2408 108.256 42.1313 107.652 41.7542C106.871 41.286 106.908 40.538 108.635 39.2001C110.361 37.8622 113.638 36.2384 117.287 34.6998C122.235 32.6139 130.1 30.528 134.115 29.2569C134.474 29.1598 134.809 28.9877 135.097 28.7522L135.134 28.7218C135.134 28.7218 135.134 28.7218 135.097 28.7218C134.69 28.5437 134.248 28.4605 133.804 28.4785C132.229 28.4116 128.025 28.4785 126.14 28.6184C124.734 28.6629 123.334 28.8236 121.954 29.0988C119.465 29.707 112.393 32.4254 105.163 35.2167C98.5366 37.7892 91.7761 40.392 88.2982 41.4624C88.109 41.511 87.9504 41.5779 87.7978 41.6144C86.5775 42.0097 85.2535 42.405 84.7898 42.0644C84.442 41.8212 84.4786 41.3711 85.046 40.5623C85.7904 39.5649 86.9314 38.1845 88.0968 36.7736C89.9822 34.5295 91.9042 32.2368 91.9896 31.6652C88.9388 31.1483 80.3966 35.5634 73.0747 39.3399C68.3216 41.7725 64.0993 43.974 62.1773 44.3571H62.1468H61.4574H61.3841L61.317 44.3024C60.7801 43.9253 61.5428 42.3381 62.8241 40.3373C64.0444 38.4581 65.643 36.1654 67.0586 34.2559C67.4691 33.6425 67.838 33.0026 68.163 32.3402C68.3003 32.1097 68.4011 31.8594 68.462 31.5983C67.6591 31.7495 66.8795 32.0051 66.1434 32.3585C64.923 32.8754 63.3733 33.6173 61.6648 34.4991C59.6391 35.5634 57.3205 36.8952 54.9165 38.2514C50.0352 41.0671 44.7452 44.0834 40.7852 45.5126C39.5118 45.9843 38.1989 46.3425 36.8619 46.5829C35.2511 46.7714 34.2993 46.3579 35.9284 44.3571C36.1663 44.0652 37.6551 42.4962 39.5588 40.4772C42.8109 37.029 47.3261 32.2551 48.9003 30.5158C47.7227 31.0814 45.8007 32.1699 43.5187 33.4592C36.7582 37.2905 26.7577 42.928 22.572 42.5266C21.2602 42.4111 20.4609 41.7178 20.4487 40.2886C17.9531 42.1496 12.6997 49.0094 8.4591 54.5617L6.78116 56.7693H6.75066C5.95136 57.5599 3.66937 58.5937 2.04636 58.8856C1.64779 58.9852 1.23574 59.0201 0.826042 58.989C0.66368 58.9831 0.505538 58.9358 0.366693 58.8517C0.227848 58.7676 0.112912 58.6495 0.0328269 58.5086C-0.0312979 58.2652 -0.000776579 58.0067 0.118258 57.7849V57.7484C2.91888 53.6678 7.83064 48.2857 12.4861 43.2016C14.9939 40.4589 17.3979 37.8257 19.387 35.4965L19.747 35.1012C20.1131 34.6694 20.2656 34.4626 20.406 34.2924C20.5463 34.1221 20.5585 33.964 20.6988 33.6842C20.8208 33.3789 20.9593 33.0805 21.1138 32.7902C22.9814 28.6808 25.2046 24.7414 27.7584 21.0166C28.8642 19.4657 30.0881 18.0018 31.4193 16.638C34.0308 14.0169 37.1304 11.706 41.3344 9.03623C41.7094 8.7974 42.1219 8.62268 42.5547 8.5193C42.9878 8.39835 43.435 8.33496 43.8848 8.33078C44.0921 8.32575 44.2977 8.37002 44.4844 8.45991C44.6712 8.5498 44.8338 8.68274 44.9587 8.8477C45.0152 8.93108 45.0565 9.02373 45.0807 9.12138C45.9777 12.2229 33.5793 25.9304 26.8859 33.3254C25.3788 34.9978 24.134 36.3661 23.4446 37.1871L23.3713 37.2358C23.09 37.7339 22.9252 38.289 22.8893 38.8595C22.8298 39.0926 22.8236 39.336 22.8711 39.5718C22.9186 39.8075 23.0187 40.0297 23.1639 40.2217H23.2005C25.2079 41.6387 34.6165 36.4695 43.3357 31.7078C49.1078 28.5211 54.5748 25.5229 57.412 24.7263C57.9188 24.5317 58.4634 24.4548 59.0045 24.5013C59.1134 24.5184 59.2174 24.5581 59.3099 24.6178C59.4024 24.6775 59.4813 24.7559 59.5415 24.8479C59.6181 25.0539 59.6181 25.2805 59.5415 25.4865C59.3044 26.0733 58.9517 26.6068 58.5042 27.0555C58.2967 27.2622 57.3937 28.2718 56.1124 29.6036C52.9701 32.9849 47.6556 38.7257 45.8251 40.7752C48.0217 39.796 52.848 37.2601 56.3076 35.4478L58.9008 34.0856C60.7313 33.1247 62.6899 32.1091 64.6241 31.0875L65.6979 30.5219C68.5657 29.0198 71.2809 27.621 73.5507 26.5568C75.1574 25.7097 76.8433 25.0213 78.5845 24.5013H78.6516H79.3411H79.4143L79.4997 24.5378C80 24.9148 79.2373 26.5021 77.9743 28.5029C76.754 30.382 75.1554 32.6747 73.7581 34.5843C73.3455 35.2032 72.9647 35.8425 72.6171 36.4999C72.4894 36.7343 72.3911 36.9835 72.3243 37.2418C73.1336 37.1103 73.919 36.8603 74.6551 36.4999C75.8754 35.983 77.4252 35.2228 79.1214 34.3471L80.3417 33.7389C81.7573 33.0517 83.2094 32.3645 84.6494 31.7078C88.951 29.707 93.4845 27.7244 97.0112 26.3622C100.672 24.9695 103.29 24.2763 103.674 25.0364V25.0851V25.1581C103.711 25.6932 101.996 27.9677 100.166 30.382C98.7248 32.2328 97.3846 34.1593 96.1509 36.1533C98.9698 35.6363 106.377 32.6017 112.43 30.1023C116.201 28.5515 119.465 27.2075 120.765 26.8305C123.205 26.1372 126.732 25.9851 130.527 26.0703C134.322 26.1554 140.491 26.4352 143.951 26.7271C144.866 26.794 146.391 26.8609 146.733 27.396C146.959 27.8096 146.684 28.3265 145.513 29.038C141.968 31.1057 135.829 32.2429 132.089 33.295C127.525 34.6086 122.839 35.9891 119.013 38.3852C118.531 38.6771 118.342 38.8474 118.355 38.9021C118.367 38.9568 118.666 39.0055 119.154 39.1392C121.058 39.6562 125.792 40.7265 129.063 40.6414C132.098 40.5152 135.109 40.0459 138.038 39.2426C140.961 38.4338 142.865 37.2783 145.702 36.3114C149.729 34.9552 152.847 33.9518 155.8 33.1916L155.836 33.216ZM149.198 41.5475C149.266 41.6229 149.355 41.676 149.454 41.6995C152.914 43.1834 161.548 41.6144 166.716 39.4616C167.781 39.0529 168.788 38.507 169.711 37.8378C170.364 37.3392 170.749 36.8405 170.712 36.4087C170.675 35.9769 170.401 35.7337 169.779 35.4053C168.467 34.7181 166.441 34.6512 164.287 34.8883C161.408 35.2529 158.585 35.9656 155.879 37.0108C154.034 37.8338 152.264 38.8145 150.589 39.942C150.128 40.2249 149.716 40.5802 149.369 40.9941C149.161 41.2191 149.094 41.4441 149.18 41.5475H149.198ZM32.3651 18.2374C29.0946 21.8863 26.0316 26.3075 24.9761 28.8921C25.8791 27.9981 27.5875 26.0824 29.5766 23.8749C33.5732 19.3746 38.5398 13.6703 39.8029 12.2046C37.8992 12.6729 35.0803 15.1845 32.3651 18.2374ZM46.6183 0.516163C47.728 -0.0132298 48.9882 -0.140132 50.1816 0.157352C50.6682 0.260651 51.1012 0.534753 51.402 0.929695C51.5091 1.10064 51.5743 1.29433 51.5923 1.49508C51.6103 1.69582 51.5807 1.89799 51.5057 2.08517C51.3521 2.51897 51.1041 2.91355 50.7796 3.24064C49.6644 4.34098 48.2527 5.09516 46.716 5.41171C45.7558 5.65382 44.761 5.72992 43.775 5.63672C43.4487 5.60268 43.1404 5.47127 42.8903 5.25967C42.7793 5.14081 42.6994 4.99645 42.6579 4.83942C42.6164 4.68239 42.6145 4.51756 42.6523 4.35961C42.7772 3.85992 43.0128 3.39445 43.3418 2.99738C44.2217 1.91339 45.3552 1.06136 46.6427 0.516163H46.6183Z" fill="black"/>
<path d="M176.673 61.2478C150.175 57.0817 118.594 53.9789 87.8478 54.5107C63.246 54.936 39.1845 57.6384 18.7076 63.9439H18.6708C17.3449 64.1878 14.4047 63.6061 12.6124 62.7866C12.18 62.6071 11.7765 62.3625 11.4154 62.061C11.2632 61.9599 11.1439 61.8149 11.0728 61.6444C11.0018 61.474 10.9821 61.2858 11.0165 61.1039C11.108 60.8191 11.3067 60.5829 11.5689 60.4471H11.6057C29.3327 53.9414 59.9928 50.9263 91.2054 51.0014C123.885 51.0514 157.166 54.4919 176.777 60.7661L180 61.7982L176.673 61.2478Z" fill="black"/>
<path d="M155.836 33.216C158.843 32.4536 161.902 31.9129 164.989 31.5983C167.187 31.3577 169.407 31.3924 171.597 31.7017C173.324 31.9936 174.812 32.5105 175.52 33.3558C175.632 33.4894 175.73 33.6341 175.813 33.7876C175.955 34.1602 176.017 34.558 175.996 34.9559C175.975 35.3537 175.871 35.7429 175.691 36.0985C175.247 37.0443 174.591 37.8763 173.775 38.5311C173.004 39.1954 172.141 39.7463 171.212 40.167C167.931 41.7424 164.525 43.0462 161.029 44.0652C156.952 45.1506 152.758 45.7408 148.539 45.8227C146.306 45.8896 143.56 45.7193 141.778 45.0261C141.137 44.8402 140.568 44.4623 140.149 43.9436C139.966 43.691 139.858 43.3913 139.84 43.0799C139.822 42.7685 139.893 42.4584 140.046 42.186C140.438 41.4196 141.006 40.7568 141.705 40.2521C141.223 40.3738 140.772 40.4954 140.308 40.6292C137.8 41.3407 134.06 43.0131 129.099 43.2503C124.566 43.4753 120.502 42.8063 114.657 42.4597C113.254 42.3928 111.905 42.3016 110.746 42.2712C109.587 42.2408 108.256 42.1313 107.652 41.7542C106.871 41.286 106.908 40.538 108.635 39.2001C110.361 37.8622 113.638 36.2384 117.287 34.6998C122.235 32.6139 130.1 30.528 134.115 29.2569C134.474 29.1598 134.809 28.9877 135.097 28.7522L135.134 28.7218C135.134 28.7218 135.134 28.7218 135.097 28.7218C134.69 28.5437 134.248 28.4605 133.804 28.4785C132.229 28.4116 128.025 28.4785 126.14 28.6184C124.734 28.6629 123.334 28.8236 121.954 29.0988C119.465 29.707 112.393 32.4254 105.163 35.2167C98.5366 37.7892 91.7761 40.392 88.2982 41.4624C88.109 41.511 87.9504 41.5779 87.7978 41.6144C86.5775 42.0097 85.2535 42.405 84.7898 42.0644C84.442 41.8212 84.4786 41.3711 85.046 40.5623C85.7904 39.5649 86.9314 38.1845 88.0968 36.7736C89.9822 34.5295 91.9042 32.2368 91.9896 31.6652C88.9388 31.1483 80.3966 35.5634 73.0747 39.3399C68.3216 41.7725 64.0993 43.974 62.1773 44.3571H62.1468H61.4574H61.3841L61.317 44.3024C60.7801 43.9253 61.5428 42.3381 62.8241 40.3373C64.0444 38.4581 65.643 36.1654 67.0586 34.2559C67.4691 33.6425 67.838 33.0026 68.163 32.3402C68.3003 32.1097 68.4011 31.8594 68.462 31.5983C67.6591 31.7495 66.8795 32.0051 66.1434 32.3585C64.923 32.8754 63.3733 33.6173 61.6648 34.4991C59.6391 35.5634 57.3205 36.8952 54.9165 38.2514C50.0352 41.0671 44.7452 44.0834 40.7852 45.5126C39.5118 45.9843 38.1989 46.3425 36.8619 46.5829C35.2511 46.7714 34.2993 46.3579 35.9284 44.3571C36.1663 44.0652 37.6551 42.4962 39.5588 40.4772C42.8109 37.029 47.3261 32.2551 48.9003 30.5158C47.7227 31.0814 45.8007 32.1699 43.5187 33.4592C36.7582 37.2905 26.7577 42.928 22.572 42.5266C21.2602 42.3928 20.4609 41.7178 20.4487 40.2886C17.9531 42.1496 12.6997 49.0094 8.4591 54.5617L6.78116 56.7693H6.75066C5.95136 57.5599 3.66937 58.5937 2.04636 58.8856C1.64779 58.9852 1.23574 59.0201 0.826042 58.989C0.66368 58.9831 0.505538 58.9358 0.366693 58.8517C0.227848 58.7676 0.112912 58.6495 0.0328269 58.5086C-0.0312979 58.2652 -0.000776579 58.0067 0.118258 57.7849V57.7484C2.91888 53.6678 7.83064 48.2857 12.4861 43.2016C14.9939 40.4589 17.3979 37.8257 19.387 35.4965L19.747 35.1012C20.1131 34.6694 20.2656 34.4626 20.406 34.2924C20.5463 34.1221 20.5585 33.964 20.6988 33.6842C20.8208 33.3789 20.9593 33.0805 21.1138 32.7902C22.9814 28.6808 25.2046 24.7414 27.7584 21.0166C28.8642 19.4657 30.0881 18.0018 31.4193 16.638C34.0308 14.0169 37.1304 11.706 41.3344 9.03623C41.7094 8.7974 42.1219 8.62268 42.5547 8.5193C42.9878 8.39835 43.435 8.33496 43.8848 8.33078C44.0921 8.32575 44.2977 8.37002 44.4844 8.45991C44.6712 8.5498 44.8338 8.68274 44.9587 8.8477C45.0152 8.93108 45.0565 9.02373 45.0807 9.12138C45.9777 12.2229 33.5793 25.9304 26.8859 33.3254C25.3788 34.9978 24.134 36.3661 23.4446 37.1871L23.3713 37.2358C23.09 37.7339 22.9252 38.289 22.8893 38.8595C22.8298 39.0926 22.8236 39.336 22.8711 39.5718C22.9186 39.8075 23.0187 40.0297 23.1639 40.2217H23.2005C25.2079 41.6387 34.6165 36.4695 43.3357 31.7078C49.1078 28.5211 54.5748 25.5229 57.412 24.7263C57.9188 24.5317 58.4634 24.4548 59.0045 24.5013C59.1134 24.5184 59.2174 24.5581 59.3099 24.6178C59.4024 24.6775 59.4813 24.7559 59.5415 24.8479C59.6181 25.0539 59.6181 25.2805 59.5415 25.4865C59.3044 26.0733 58.9517 26.6068 58.5042 27.0555C58.2967 27.2622 57.3937 28.2718 56.1124 29.6036C52.9701 32.9849 47.6556 38.7257 45.8251 40.7752C48.0217 39.796 52.848 37.2601 56.3076 35.4478L58.9008 34.0856C60.7313 33.1247 62.6899 32.1091 64.6241 31.0875L65.6979 30.5219C68.5657 29.0198 71.2809 27.621 73.5507 26.5568C75.1574 25.7097 76.8433 25.0213 78.5845 24.5013H78.6516H79.3411H79.4143L79.4997 24.5378C80 24.9148 79.2373 26.5021 77.9743 28.5029C76.754 30.382 75.1554 32.6747 73.7581 34.5843C73.3455 35.2032 72.9647 35.8425 72.6171 36.4999C72.4894 36.7343 72.3911 36.9835 72.3243 37.2418C73.1336 37.1103 73.919 36.8603 74.6551 36.4999C75.8754 35.983 77.4252 35.2228 79.1214 34.3471L80.3417 33.7389C81.7573 33.0517 83.2094 32.3645 84.6494 31.7078C88.951 29.707 93.4845 27.7244 97.0112 26.3622C100.672 24.9695 103.29 24.2763 103.674 25.0364V25.0851V25.1581C103.711 25.6932 101.996 27.9677 100.166 30.382C98.7248 32.2328 97.3846 34.1593 96.1509 36.1533C98.9698 35.6363 106.377 32.6017 112.43 30.1023C116.201 28.5515 119.465 27.2075 120.765 26.8305C123.205 26.1372 126.732 25.9851 130.527 26.0703C134.322 26.1554 140.491 26.4352 143.951 26.7271C144.866 26.794 146.391 26.8609 146.733 27.396C146.959 27.8096 146.684 28.3265 145.513 29.038C141.968 31.1057 135.829 32.2429 132.089 33.295C127.525 34.6086 122.839 35.9891 119.013 38.3852C118.531 38.6771 118.342 38.8474 118.355 38.9021C118.367 38.9568 118.666 39.0055 119.154 39.1392C121.058 39.6562 125.792 40.7265 129.063 40.6414C132.098 40.5152 135.109 40.0459 138.038 39.2426C140.961 38.4338 142.865 37.2783 145.702 36.3114C149.729 34.9552 152.847 33.9518 155.8 33.1916L155.836 33.216ZM149.198 41.5475C149.266 41.6229 149.355 41.676 149.454 41.6995C152.914 43.1834 161.548 41.6144 166.716 39.4616C167.781 39.0529 168.788 38.507 169.711 37.8378C170.364 37.3392 170.749 36.8405 170.712 36.4087C170.675 35.9769 170.401 35.7337 169.779 35.4053C168.467 34.7181 166.441 34.6512 164.287 34.8883C161.408 35.2529 158.585 35.9656 155.879 37.0108C154.034 37.8338 152.264 38.8145 150.589 39.942C150.128 40.2249 149.716 40.5802 149.369 40.9941C149.161 41.2191 149.094 41.4441 149.18 41.5475H149.198ZM32.3651 18.2374C29.0946 21.8863 26.0316 26.3075 24.9761 28.8921C25.8791 27.9981 27.5875 26.0824 29.5766 23.8749C33.5732 19.3746 38.5398 13.6703 39.8029 12.2046C37.8992 12.6729 35.0803 15.1845 32.3651 18.2374ZM46.6183 0.516163C47.728 -0.0132298 48.9882 -0.140132 50.1816 0.157352C50.6682 0.260651 51.1012 0.534753 51.402 0.929695C51.5091 1.10064 51.5743 1.29433 51.5923 1.49508C51.6103 1.69582 51.5807 1.89799 51.5057 2.08517C51.3521 2.51897 51.1041 2.91355 50.7796 3.24064C49.6644 4.34098 48.2527 5.09516 46.716 5.41171C45.7558 5.65382 44.761 5.72992 43.775 5.63672C43.4487 5.60268 43.1404 5.47127 42.8903 5.25967C42.7793 5.14081 42.6994 4.99645 42.6579 4.83942C42.6164 4.68239 42.6145 4.51756 42.6523 4.35961C42.7772 3.85992 43.0128 3.39445 43.3418 2.99738C44.2167 1.90824 45.3516 1.05515 46.6427 0.516163H46.6183Z" fill="black"/>
</g>
<defs>
<clipPath id="clip0_756_782">
<rect width="180" height="64" fill="white"/>
</clipPath>
</defs>
</svg>
