<svg width="210" height="126" viewBox="0 0 210 126" fill="none" xmlns="http://www.w3.org/2000/svg">
<path d="M94.3203 117.599H133.446L210 73.5992L154.406 41.6992L94.3203 117.599Z" fill="#958383"/>
<path d="M0 79.0992L82.1435 125.999L171.473 73.5992L89.3299 26.6992L0 79.0992Z" fill="#D1C9C9"/>
<path d="M0 77.9996L82.1435 124.9L171.473 72.4996L89.3299 25.5996L0 77.9996Z" fill="#FBF7F9"/>
<path d="M0 79.1L3.19387 79.8L0 78V79.1Z" fill="#D1C9C9"/>
<path d="M82.1436 126L171.473 73.6V72.5L82.1436 124.9V126Z" fill="#AA989A"/>
<path d="M16.668 72.6L29.6433 71.9L29.5435 65L16.668 72.6Z" fill="#958383"/>
<path d="M86.0361 0.300781V27.3008L89.829 29.4008V11.9008L101.207 18.5008V36.0008L108.992 40.5008V23.1008L122.068 30.7008V48.1008L126.759 50.8008L167.481 74.4008V47.3008L126.759 6.00078L86.0361 0.300781Z" fill="#B76F3F"/>
<path d="M164.887 72.9008L165.187 73.0008V45.0008L164.887 44.8008V72.9008Z" fill="#2B1612"/>
<path d="M161.692 70.9996L161.992 71.1996V41.7996L161.692 41.5996V70.9996Z" fill="#2B1612"/>
<path d="M158.799 69.3996L159.099 69.4996V38.7996L158.799 38.5996V69.3996Z" fill="#2B1612"/>
<path d="M155.306 67.2996L155.606 67.4996V35.2996L155.306 35.0996V67.2996Z" fill="#2B1612"/>
<path d="M152.312 65.6L152.612 65.8V32.2L152.312 32V65.6Z" fill="#2B1612"/>
<path d="M149.217 63.8004L149.517 64.0004V29.1004L149.217 28.9004V63.8004Z" fill="#2B1612"/>
<path d="M146.422 62.1996L146.722 62.3996V26.2996L146.422 26.0996V62.1996Z" fill="#2B1612"/>
<path d="M143.727 60.6008L144.027 60.8008V23.5008L143.727 23.3008V60.6008Z" fill="#2B1612"/>
<path d="M140.533 58.7996L140.933 58.9996V20.2996L140.633 20.0996L140.533 58.7996Z" fill="#2B1612"/>
<path d="M137.538 57.0996L137.838 57.1996V17.1996L137.538 17.0996V57.0996Z" fill="#2B1612"/>
<path d="M135.043 55.5996L135.443 55.7996V14.6996L135.043 14.5996V55.5996Z" fill="#2B1612"/>
<path d="M132.448 54.1004L132.748 54.3004V12.0004L132.448 11.9004V54.1004Z" fill="#2B1612"/>
<path d="M129.953 52.7004L130.253 52.9004V9.50039L129.953 9.40039V52.7004Z" fill="#2B1612"/>
<path d="M127.558 51.3004L127.858 51.4004V7.00039L127.558 6.90039V51.3004Z" fill="#2B1612"/>
<path d="M124.863 49.6992L125.263 49.8992V5.89922L124.863 5.69922V49.6992Z" fill="#2B1612"/>
<path d="M121.869 5.30078L121.969 30.6008V48.0008L122.269 48.2008V30.8008V5.50078L121.869 5.30078Z" fill="#2B1612"/>
<path d="M119.772 29.4L120.072 29.5V5.2L119.772 5V29.4Z" fill="#2B1612"/>
<path d="M117.277 27.8996L117.577 27.9996V4.79961L117.277 4.59961V27.8996Z" fill="#2B1612"/>
<path d="M114.482 26.2992L114.782 26.4992V4.39922L114.482 4.19922V26.2992Z" fill="#2B1612"/>
<path d="M112.087 24.9004L112.487 25.1004V4.10039L112.087 3.90039V24.9004Z" fill="#2B1612"/>
<path d="M109.492 23.4L109.792 23.6V3.7L109.492 3.5V23.4Z" fill="#2B1612"/>
<path d="M107.296 39.5992L107.596 39.6992V3.39922L107.296 3.19922V39.5992Z" fill="#2B1612"/>
<path d="M105.001 38.3004L105.401 38.4004V3.10039L105.001 2.90039V38.3004Z" fill="#2B1612"/>
<path d="M102.605 36.9L102.905 37V2.7L102.605 2.5V36.9Z" fill="#2B1612"/>
<path d="M100.31 17.7992L100.61 17.9992V2.39922L100.31 2.19922V17.7992Z" fill="#2B1612"/>
<path d="M97.915 16.4004L98.215 16.6004V2.00039L97.915 1.90039V16.4004Z" fill="#2B1612"/>
<path d="M95.6182 15.1L95.9182 15.3V1.7L95.6182 1.5V15.1Z" fill="#2B1612"/>
<path d="M92.7246 13.5996L93.0246 13.7996V1.29961L92.7246 1.09961V13.5996Z" fill="#2B1612"/>
<path d="M90.6279 12.2008L90.9279 12.4008V1.00078L90.6279 0.800781V12.2008Z" fill="#2B1612"/>
<path d="M88.0332 28.4L88.3333 28.6V0.599998L88.0332 0.5V28.4Z" fill="#2B1612"/>
<path d="M94.3203 117.601L167.481 74.4008V47.3008L94.3203 90.6008V117.601Z" fill="#B28B64"/>
<path d="M35.9316 83.7L108.992 40.5V13.5L35.9316 56.7V83.7Z" fill="#897998"/>
<path d="M16.668 72.6004L89.7288 29.4004V2.40039L16.668 45.6004V72.6004Z" fill="#897998"/>
<path d="M12.9746 43.5V70.5L16.6675 72.6V55.1L28.0459 61.7V79.2L35.9309 83.7V66.3L49.006 73.9V91.3L53.697 94L94.3197 117.6V90.6L53.697 49.3L12.9746 43.5Z" fill="#B76F3F"/>
<path d="M91.8242 116.1L92.1242 116.3V88.2L91.8242 88V116.1Z" fill="#2B1612"/>
<path d="M88.6299 114.199L88.9299 114.399V84.9988L88.6299 84.7988V114.199Z" fill="#2B1612"/>
<path d="M85.7363 112.598L86.0363 112.798V81.9984L85.7363 81.8984V112.598Z" fill="#2B1612"/>
<path d="M82.2432 110.599L82.5432 110.699V78.4988L82.2432 78.2988V110.599Z" fill="#2B1612"/>
<path d="M79.1484 108.799L79.4484 108.999V75.3992L79.1484 75.1992V108.799Z" fill="#2B1612"/>
<path d="M76.0547 107L76.4547 107.2V72.2996L76.0547 72.0996V107Z" fill="#2B1612"/>
<path d="M73.3594 105.399L73.6594 105.599V69.4988L73.3594 69.2988V105.399Z" fill="#2B1612"/>
<path d="M70.5645 103.8L70.9645 104V66.7L70.5645 66.5V103.8Z" fill="#2B1612"/>
<path d="M67.4697 101.999L67.7697 102.199V63.4988L67.4697 63.2988V101.999Z" fill="#2B1612"/>
<path d="M64.4756 100.299L64.7756 100.399V60.3988L64.4756 60.2988V100.299Z" fill="#2B1612"/>
<path d="M61.9805 98.7988L62.2805 98.9988V57.8988L61.9805 57.7988V98.7988Z" fill="#2B1612"/>
<path d="M59.2861 97.2996L59.6862 97.4996V55.1996L59.2861 55.0996V97.2996Z" fill="#2B1612"/>
<path d="M56.8906 95.8996L57.1906 96.0996V52.7996L56.8906 52.5996V95.8996Z" fill="#2B1612"/>
<path d="M54.3955 94.4996L54.6955 94.5996V50.2996L54.3955 50.0996V94.4996Z" fill="#2B1612"/>
<path d="M51.8008 92.8984L52.1008 93.0984V49.0984L51.8008 48.8984V92.8984Z" fill="#2B1612"/>
<path d="M48.8066 48.5V73.8V91.2L49.1066 91.4V74V48.7L48.8066 48.5Z" fill="#2B1612"/>
<path d="M46.71 72.5992L47.0099 72.6992V48.3992L46.71 48.1992V72.5992Z" fill="#2B1612"/>
<path d="M44.1152 71.0988L44.4153 71.2988V47.9988L44.1152 47.7988V71.0988Z" fill="#2B1612"/>
<path d="M41.4199 69.4984L41.7199 69.6984V47.5984L41.4199 47.3984V69.4984Z" fill="#2B1612"/>
<path d="M39.0244 68.0996L39.3244 68.2996V47.2996L39.0244 47.0996V68.0996Z" fill="#2B1612"/>
<path d="M36.4297 66.5992L36.7297 66.7992V46.8992L36.4297 46.6992V66.5992Z" fill="#2B1612"/>
<path d="M34.2334 82.7984L34.5334 82.8984V46.5984L34.2334 46.3984V82.7984Z" fill="#2B1612"/>
<path d="M31.9385 81.4996L32.2385 81.5996V46.2996L31.9385 46.0996V81.4996Z" fill="#2B1612"/>
<path d="M29.542 80.0988L29.842 80.1988V45.8988L29.542 45.7988V80.0988Z" fill="#2B1612"/>
<path d="M27.2471 61.0984L27.5471 61.1984V45.5984L27.2471 45.3984V61.0984Z" fill="#2B1612"/>
<path d="M24.752 59.5996L25.0519 59.7996V45.2996L24.752 45.0996V59.5996Z" fill="#2B1612"/>
<path d="M22.4561 58.2988L22.756 58.4988V44.8988L22.4561 44.7988V58.2988Z" fill="#2B1612"/>
<path d="M19.6621 56.7988L19.9622 56.9988V44.4988L19.6621 44.2988V56.7988Z" fill="#2B1612"/>
<path d="M17.4658 55.4L17.7658 55.6V44.2L17.4658 44V55.4Z" fill="#2B1612"/>
<path d="M14.9707 71.5992L15.2707 71.7992V43.8992L14.9707 43.6992V71.5992Z" fill="#2B1612"/>
<path d="M97.6133 100.599L131.449 80.5988V74.7988L97.6133 94.7988V100.599Z" fill="#7E676A"/>
<path d="M108.692 93.6988L131.05 76.2988V75.7988L106.696 94.7988L108.692 93.6988Z" fill="#AA9B9E"/>
<path d="M97.9131 99.8981V99.998L98.2125 99.8981L120.57 81.498L118.674 82.698L97.9131 99.8981Z" fill="#AA9B9E"/>
<path d="M97.6133 100.599L131.449 80.5988V74.7988L97.6133 94.7988V100.599ZM97.9127 94.8988L131.05 75.2988V80.2988L97.9127 99.8988V94.8988Z" fill="#3C281E"/>
<path d="M128.056 82.498L128.456 82.298V76.498L128.056 76.6981V82.498Z" fill="#3C281E"/>
<path d="M125.061 84.2988L125.461 84.0988V78.2988L125.061 78.4988V84.2988Z" fill="#3C281E"/>
<path d="M122.066 86.0996L122.466 85.8996V80.0996L122.066 80.2996V86.0996Z" fill="#3C281E"/>
<path d="M119.072 87.8984L119.472 87.6984V81.8984L119.072 82.0984V87.8984Z" fill="#3C281E"/>
<path d="M116.377 89.498L116.677 89.298V83.498L116.377 83.698V89.498Z" fill="#3C281E"/>
<path d="M113.383 91.2988L113.683 91.0988V85.2988L113.383 85.4988V91.2988Z" fill="#3C281E"/>
<path d="M110.289 93.0981L110.689 92.8981V86.998L110.289 87.198V93.0981Z" fill="#3C281E"/>
<path d="M107.295 94.7988L107.695 94.5988V88.7988L107.295 88.9988V94.7988Z" fill="#3C281E"/>
<path d="M104.2 96.5996L104.6 96.3996V90.5996L104.2 90.7996V96.5996Z" fill="#3C281E"/>
<path d="M101.206 98.3984L101.606 98.1984V92.3984L101.206 92.5984V98.3984Z" fill="#3C281E"/>
<path d="M131.449 80.5992L165.185 60.4992V54.6992L131.449 74.6992V80.5992Z" fill="#7E676A"/>
<path d="M142.529 73.5992L164.886 56.2992V55.6992L140.433 74.7992L142.529 73.5992Z" fill="#AA9B9E"/>
<path d="M131.749 79.8V80L132.048 79.8L154.406 61.5L152.509 62.6L131.749 79.8Z" fill="#AA9B9E"/>
<path d="M131.449 80.5988L165.285 60.5988V54.7988L131.449 74.7988V80.5988ZM131.749 74.8988L164.886 55.2988V60.2988L131.749 79.8988V74.8988Z" fill="#3C281E"/>
<path d="M161.892 62.498L162.192 62.298V56.498L161.892 56.6981V62.498Z" fill="#3C281E"/>
<path d="M158.896 64.2988L159.197 64.0988V58.2988L158.896 58.4988V64.2988Z" fill="#3C281E"/>
<path d="M155.902 66.0981L156.202 65.898V59.998L155.902 60.1981V66.0981Z" fill="#3C281E"/>
<path d="M152.908 67.7988L153.208 67.5988V61.7988L152.908 61.9988V67.7988Z" fill="#3C281E"/>
<path d="M150.114 69.498L150.514 69.298V63.498L150.114 63.6981V69.498Z" fill="#3C281E"/>
<path d="M147.119 71.1992L147.519 70.9992V65.1992L147.119 65.3992V71.1992Z" fill="#3C281E"/>
<path d="M144.125 72.998L144.425 72.798V66.998L144.125 67.1981V72.998Z" fill="#3C281E"/>
<path d="M141.131 74.7988L141.431 74.5988V68.7988L141.131 68.9988V74.7988Z" fill="#3C281E"/>
<path d="M138.036 76.5996L138.336 76.3996V70.5996L138.036 70.7996V76.5996Z" fill="#3C281E"/>
<path d="M135.042 78.3984L135.342 78.1984V72.3984L135.042 72.5984V78.3984Z" fill="#3C281E"/>
<path d="M17.9658 52.9008L26.9487 58.2008V56.7008L17.9658 51.3008V52.9008Z" fill="#7E676A"/>
<path d="M18.0654 51.8016L24.054 56.4016L24.5531 56.7016L18.0654 51.6016V51.8016Z" fill="#AA9B9E"/>
<path d="M21.3594 53.4016L20.8604 53.1016L26.8489 58.0016L26.9488 58.1016L26.8489 58.0016L21.3594 53.4016Z" fill="#AA9B9E"/>
<path d="M17.9658 52.9008L26.9487 58.2008V56.6008L17.9658 51.3008V52.9008ZM18.0656 51.5008L26.8489 56.7008V58.0008L18.0656 52.8008V51.5008Z" fill="#3C281E"/>
<path d="M21.459 55.0004H21.559V53.5004L21.459 53.4004V55.0004Z" fill="#3C281E"/>
<path d="M23.0557 55.9008H23.1556V54.4008L23.0557 54.3008V55.9008Z" fill="#3C281E"/>
<path d="M24.6533 56.8008L24.7534 56.9008V55.3008H24.6533V56.8008Z" fill="#3C281E"/>
<path d="M17.9658 51.4008L26.9487 56.7008V55.1008L17.9658 49.8008V51.4008Z" fill="#7E676A"/>
<path d="M18.0654 50.2016L24.054 54.8016L24.5531 55.2016L18.0654 50.1016V50.2016Z" fill="#AA9B9E"/>
<path d="M21.3594 51.9016L20.8604 51.6016L26.8489 56.5016H26.9488H26.8489L21.3594 51.9016Z" fill="#AA9B9E"/>
<path d="M17.9658 51.4008L26.9487 56.7008V55.1008L17.9658 49.8008V51.4008ZM18.0656 50.0008L26.8489 55.2008V56.5008L18.0656 51.3008V50.0008Z" fill="#3C281E"/>
<path d="M21.459 53.4004L21.559 53.5004V51.9004H21.459V53.4004Z" fill="#3C281E"/>
<path d="M23.0557 54.3008L23.1556 54.4008V52.8008H23.0557V54.3008Z" fill="#3C281E"/>
<path d="M24.6533 55.3012H24.7534V53.8012L24.6533 53.7012V55.3012Z" fill="#3C281E"/>
<path d="M17.9658 54.4004L26.9487 59.8004V58.2004L17.9658 52.9004V54.4004Z" fill="#7E676A"/>
<path d="M18.0654 53.3012L24.054 57.9012L24.5531 58.2012L18.0654 53.2012V53.3012Z" fill="#AA9B9E"/>
<path d="M21.3594 55.0012L20.8604 54.7012L26.8489 59.6012H26.9488H26.8489L21.3594 55.0012Z" fill="#AA9B9E"/>
<path d="M17.9658 54.4008L26.9487 59.7008V58.1008L17.9658 52.8008V54.4008ZM18.0656 53.1008L26.8489 58.3008V59.6008L18.0656 54.4008V53.1008Z" fill="#3C281E"/>
<path d="M21.459 56.5L21.559 56.6V55H21.459V56.5Z" fill="#3C281E"/>
<path d="M23.0557 57.4004L23.1556 57.5004V55.9004H23.0557V57.4004Z" fill="#3C281E"/>
<path d="M24.6533 58.4008H24.7534V56.9008L24.6533 56.8008V58.4008Z" fill="#3C281E"/>
<path d="M38.0283 64.9004L47.0112 70.2004V68.7004L38.0283 63.4004V64.9004Z" fill="#7E676A"/>
<path d="M38.1279 63.8016L44.1165 68.4016L44.6156 68.7016L38.1279 63.6016V63.8016Z" fill="#AA9B9E"/>
<path d="M41.4219 65.5012L40.9229 65.2012L46.8116 70.0012L46.9114 70.1012V70.0012L41.4219 65.5012Z" fill="#AA9B9E"/>
<path d="M38.0283 64.9008L47.0112 70.2008V68.6008L38.0283 63.3008V64.9008ZM38.1281 63.5008L46.9114 68.7008V70.0008L38.1281 64.8008V63.5008Z" fill="#3C281E"/>
<path d="M39.9248 66L40.0248 66.1V64.5H39.9248V66Z" fill="#3C281E"/>
<path d="M41.5215 67.0004H41.6215V65.5004L41.5215 65.4004V67.0004Z" fill="#3C281E"/>
<path d="M43.0186 67.9008H43.1185V66.4008L43.0186 66.3008V67.9008Z" fill="#3C281E"/>
<path d="M44.6152 68.8008L44.7153 68.9008V67.3008H44.6152V68.8008Z" fill="#3C281E"/>
<path d="M38.0283 63.4008L47.0112 68.7008V67.1008L38.0283 61.8008V63.4008Z" fill="#7E676A"/>
<path d="M38.1279 62.2016L44.1165 66.8016L44.6156 67.2016L38.1279 62.1016V62.2016Z" fill="#AA9B9E"/>
<path d="M41.4219 63.9016L40.9229 63.6016L46.8116 68.5016H46.9114L41.4219 63.9016Z" fill="#AA9B9E"/>
<path d="M38.0283 63.4008L47.0112 68.7008V67.1008L38.0283 61.8008V63.4008ZM38.1281 62.0008L46.9114 67.2008V68.5008L38.1281 63.3008V62.0008Z" fill="#3C281E"/>
<path d="M39.9248 64.5004H40.0248V63.0004L39.9248 62.9004V64.5004Z" fill="#3C281E"/>
<path d="M41.5215 65.4004L41.6215 65.5004V63.9004H41.5215V65.4004Z" fill="#3C281E"/>
<path d="M43.0186 66.3008L43.1185 66.4008V64.8008H43.0186V66.3008Z" fill="#3C281E"/>
<path d="M44.6152 67.3012H44.7153V65.8012L44.6152 65.7012V67.3012Z" fill="#3C281E"/>
<path d="M38.0283 66.4004L47.0112 71.8004V70.2004L38.0283 64.9004V66.4004Z" fill="#7E676A"/>
<path d="M38.1279 65.3012L44.1165 69.9012L44.6156 70.2012L38.1279 65.2012V65.3012Z" fill="#AA9B9E"/>
<path d="M41.4219 67.0012L40.9229 66.7012L46.8116 71.6012H46.9114L41.4219 67.0012Z" fill="#AA9B9E"/>
<path d="M38.0283 66.4008L47.0112 71.7008V70.1008L38.0283 64.8008V66.4008ZM38.1281 65.1008L46.9114 70.3008V71.6008L38.1281 66.4008V65.1008Z" fill="#3C281E"/>
<path d="M39.9248 67.6H40.0248V66.1L39.9248 66V67.6Z" fill="#3C281E"/>
<path d="M41.5215 68.5L41.6215 68.6V67H41.5215V68.5Z" fill="#3C281E"/>
<path d="M43.0186 69.4004L43.1185 69.5004V67.9004H43.0186V69.4004Z" fill="#3C281E"/>
<path d="M44.6152 70.4008H44.7153V68.9008L44.6152 68.8008V70.4008Z" fill="#3C281E"/>
<path d="M53.6973 49.3L94.3199 93.6L169.077 48.9L126.758 6L53.6973 49.3Z" fill="#DECCBA"/>
<path d="M9.68164 43.5L53.6978 49.3L126.759 6L84.2397 0L9.68164 43.5Z" fill="#BBAE9C"/>
<path d="M63.2793 50.6004L70.5654 58.7004L134.743 20.5004L127.158 12.9004L63.2793 50.6004Z" fill="#BBAE9C"/>
<path d="M63.2793 50.6004L70.5654 58.7004L134.743 20.5004L127.158 12.9004L63.2793 50.6004ZM70.765 57.8004L64.477 50.8004L127.058 13.8004L133.545 20.3004L70.765 57.8004Z" fill="#3C281E"/>
<path d="M74.2588 44.3004L81.4451 52.2004L81.7445 51.4004L74.9575 43.9004L74.2588 44.3004Z" fill="#3C281E"/>
<path d="M85.0381 37.9996L92.1246 45.9996L92.424 45.1996L85.637 37.5996L85.0381 37.9996Z" fill="#3C281E"/>
<path d="M95.7178 31.4996L102.904 39.3996L103.104 38.6996L96.4165 31.0996L95.7178 31.4996Z" fill="#3C281E"/>
<path d="M106.397 25.3004L113.584 33.2004L113.883 32.4004L107.096 24.9004L106.397 25.3004Z" fill="#3C281E"/>
<path d="M117.376 18.9L124.363 26.6C124.462 26.5 124.562 26.5 124.662 26.4L124.762 26.1L117.975 18.5L117.376 18.9Z" fill="#3C281E"/>
<path d="M75.6562 63.8L82.9424 71.8L147.12 33.6L139.535 26L75.6562 63.8Z" fill="#BBAE9C"/>
<path d="M75.6562 63.7996L82.9424 71.8996L147.12 33.6996L139.535 26.0996L75.6562 63.7996ZM83.0421 70.8996L76.7541 63.8996L139.335 26.8996L145.823 33.3996L83.0421 70.8996Z" fill="#3C281E"/>
<path d="M86.6357 57.4L93.8221 65.3L94.0216 64.6L87.3344 57L86.6357 57.4Z" fill="#3C281E"/>
<path d="M97.3154 51.2008L104.502 59.1008L104.801 58.3008L98.0141 50.8008L97.3154 51.2008Z" fill="#3C281E"/>
<path d="M108.095 44.6992L115.281 52.5992L115.481 51.7992L108.793 44.1992L108.095 44.6992Z" fill="#3C281E"/>
<path d="M118.774 38.4L125.961 46.3L126.16 45.6L119.473 38L118.774 38.4Z" fill="#3C281E"/>
<path d="M129.753 31.9996L136.74 39.6996C136.839 39.5996 136.939 39.5996 137.039 39.4996L137.139 39.1996L130.352 31.5996L129.753 31.9996Z" fill="#3C281E"/>
<path d="M43.917 43.3008L53.0995 44.5008L116.978 6.80078L106.498 5.30078L43.917 43.3008Z" fill="#DECCBA"/>
<path d="M43.917 43.3004L53.0995 44.5004L116.978 6.80039L106.498 5.40039L43.917 43.3004ZM114.782 7.20039L52.8999 43.8004L46.013 42.9004L106.697 6.10039L114.782 7.20039Z" fill="#3C281E"/>
<path d="M55.9933 37H55.4942L53.9971 37.5L62.98 38.7L62.8802 37.9L55.9933 37Z" fill="#3C281E"/>
<path d="M67.3722 30.3012L66.8731 30.2012L65.376 30.7012L74.3589 31.9012L74.259 31.2012L67.3722 30.3012Z" fill="#3C281E"/>
<path d="M77.0536 23.8008L75.6562 24.3008L84.6391 25.5008L85.8369 24.9008L77.5526 23.8008H77.0536Z" fill="#3C281E"/>
<path d="M88.4325 17L87.0352 17.5L96.018 18.7L97.4154 18.2L88.9316 17.1L88.4325 17Z" fill="#3C281E"/>
<path d="M98.2137 10.8008L96.8164 11.3008L105.799 12.5008L107.097 12.0008L98.7128 10.9008L98.2137 10.8008Z" fill="#3C281E"/>
<path d="M27.9473 41.3008L37.1297 42.5008L101.008 4.70078L90.528 3.30078L27.9473 41.3008Z" fill="#DECCBA"/>
<path d="M27.9473 41.3004L37.1297 42.5004L101.008 4.80039L90.528 3.40039L27.9473 41.3004ZM98.8123 5.20039L36.9302 41.8004L30.0432 40.9004L90.7277 4.10039L98.8123 5.20039Z" fill="#3C281E"/>
<path d="M40.0235 35.0004L39.5245 34.9004L38.0273 35.4004L47.0102 36.6004L46.9104 35.9004L40.0235 35.0004Z" fill="#3C281E"/>
<path d="M51.4024 28.2012H50.9034L49.4062 28.7012L58.3891 29.9012L58.2893 29.1012L51.4024 28.2012Z" fill="#3C281E"/>
<path d="M61.0838 21.7012L59.6865 22.2012L68.6694 23.4012L69.8671 22.9012L61.5829 21.8012L61.0838 21.7012Z" fill="#3C281E"/>
<path d="M72.4628 15L71.0654 15.5L80.0483 16.7L81.4457 16.1L72.9618 15H72.4628Z" fill="#3C281E"/>
<path d="M82.244 8.80078L80.8467 9.30078L89.8296 10.5008L91.1271 9.90078L82.743 8.80078H82.244Z" fill="#3C281E"/>
<path d="M9.68164 43.5V44.8L53.6978 50.7L94.3205 95.4V93.6L53.6978 49.3L9.68164 43.5Z" fill="#756A60"/>
<path d="M94.3203 95.4004L169.078 50.1004V48.9004L94.3203 93.6004V95.4004Z" fill="#756A60"/>
<path d="M35.9316 83.6996L48.8071 82.8996V76.0996L35.9316 83.6996Z" fill="#958383"/>
</svg>
