<svg width="93" height="155" viewBox="0 0 93 155" fill="none" xmlns="http://www.w3.org/2000/svg">
<path d="M0 47.1201V142.604L4.43739 145.084L84.231 97.6321L85.3137 2.48798L80.8763 0L0 47.1201ZM23.2614 50.3006L63.4319 26.8933V78.2927L23.2614 101.7V50.3006Z" fill="#665D47"/>
<path d="M4.4375 49.615V145.083L85.3138 97.9562V2.48828L4.4375 49.615ZM63.432 78.2921L23.2615 101.699V50.3001L63.432 26.8928V78.2921Z" fill="#827C5A"/>
<path d="M67.432 24.4941V80.6289L63.4297 78.2941V26.893L67.432 24.4941Z" fill="#474536"/>
<path d="M4.43866 49.6144V145.087L0.00292969 142.603V47.123L4.43866 49.6144Z" fill="#474536"/>
<path d="M23.2598 103.863L34.4273 99.166L26.4499 105.716V108.225L23.2598 106.372V103.863Z" fill="#B57745"/>
<path d="M26.4512 105.718L66.8947 80.3086L68.4728 81.2259V83.7347L26.4512 108.227V105.718Z" fill="#CDA483"/>
<path d="M63.4289 78.293L68.4718 81.2238L26.4501 105.716L23.2559 103.86L23.26 101.704L63.4289 78.293Z" fill="#FFCB9E"/>
<path d="M72.2269 124.442C76.9579 127.191 84.6533 127.177 89.4141 124.41C94.1749 121.644 94.1988 117.172 89.4678 114.424C84.7368 111.675 77.0415 111.689 72.2807 114.456C67.5199 117.221 67.4959 121.692 72.2269 124.442Z" fill="#E6DFDA"/>
<path d="M11.515 152.947C16.246 155.697 23.9414 155.683 28.7022 152.916C33.4629 150.15 33.4869 145.678 28.7559 142.93C24.0249 140.18 16.3296 140.195 11.5688 142.961C6.808 145.727 6.78401 150.199 11.515 152.947Z" fill="#E6DFDA"/>
<path d="M65.3894 62.3037C65.5061 62.7016 67.5126 65.0239 67.5812 65.2095C67.6499 65.396 68.6499 68.4109 69.2172 69.7768C69.7846 71.1444 71.2213 74.5946 72.5993 74.662C73.9772 74.7294 75.2013 74.0144 76.394 73.4709C77.5867 72.9273 78.7264 71.4715 78.7264 71.4715C79.2698 70.4951 78.9191 69.8892 78.2938 69.5196C77.8348 69.2482 77.2302 69.1034 76.7224 69.0335C76.1963 68.9594 75.7712 68.9652 75.7166 68.9927C75.5338 69.0842 73.7862 70.2953 73.7862 70.2953C73.7862 70.2953 71.1833 67.3587 70.6068 66.0402C70.1816 65.068 69.716 64.0858 69.4712 63.4482C69.3827 63.2218 69.3248 63.0378 69.3057 62.9138C69.2313 62.4377 68.128 61.3706 68.0676 61.2574C68.0287 61.1858 66.9096 61.4655 66.1297 61.7818C65.6839 61.9649 65.3464 62.1572 65.3894 62.3037Z" fill="#FAC5A8"/>
<path d="M67.5703 59.6313C67.5703 59.6313 67.3057 59.8544 67.5406 60.3205C67.7755 60.7875 68.0244 61.083 68.0244 61.083L68.2634 61.4825L68.2783 62.3873C68.2783 62.3873 68.4313 63.4278 68.6174 63.6658C68.8035 63.9039 69.2725 63.933 69.3841 63.7832C69.4966 63.6334 69.2493 61.2802 69.1749 61.1146C69.1005 60.9489 68.6505 60.7159 68.3677 60.3263C68.0848 59.9384 68.031 59.3633 67.5703 59.6313Z" fill="#FAC5A8"/>
<path d="M75.7476 69.2925C75.9816 69.1985 76.2686 69.2234 76.7219 69.0345C76.1959 68.9604 75.7707 68.9662 75.7161 68.9937C75.5333 69.0853 73.7857 70.2964 73.7857 70.2964C73.7857 70.2964 71.1828 67.3597 70.6063 66.0412C70.1812 65.069 69.7155 64.0868 69.4707 63.4492C69.7122 64.2208 70.1721 65.6409 70.5294 66.4366C71.0372 67.5687 73.2539 70.2572 73.2539 70.2572L73.5243 70.9773L73.6641 72.0527L73.8659 70.6609C73.8659 70.6609 74.5375 69.7786 75.7476 69.2925Z" fill="#F8D1BC"/>
<path d="M65.3894 62.3043C65.5061 62.7021 67.5126 65.0245 67.5812 65.2101C67.6499 65.3965 68.6499 68.4114 69.2172 69.7774C69.7846 71.145 71.2213 74.5952 72.5993 74.6626C73.9772 74.73 75.2013 74.015 76.394 73.4715C77.5867 72.9279 78.7264 71.4721 78.7264 71.4721C79.2698 70.4957 78.9191 69.8897 78.2938 69.5202C78.2839 69.7324 78.2665 70.0912 78.2475 70.713C78.2475 70.713 77.92 71.8999 76.136 72.9903C74.3544 74.0832 73.4851 74.1915 73.0988 74.2805C72.3991 74.4428 71.8226 73.7794 70.9285 72.4243C70.0369 71.0692 68.941 68.4397 68.6375 67.4192C68.3347 66.4004 67.9559 64.0081 67.9559 64.0081C67.9559 64.0081 66.5755 62.976 66.1289 61.7832C65.6839 61.9655 65.3464 62.1578 65.3894 62.3043Z" fill="#F8D1BC"/>
<path d="M75.4519 68.999C75.4519 68.999 75.1831 69.853 76.1583 70.4115C77.1334 70.97 78.0002 72.0863 78.5949 72.0205C79.1896 71.9556 81.9033 65.4572 81.4865 65.1642C81.0696 64.8712 81.2003 64.2994 81.0076 64.2969C80.8148 64.2935 77.8406 66.6059 77.5222 67.0046C77.2037 67.4017 75.4519 68.999 75.4519 68.999Z" fill="#FF862A"/>
<path d="M30.385 100.815C30.385 100.815 30.4048 100.943 30.4412 101.154C30.5976 102.047 31.0591 104.421 31.5959 104.577C31.6579 104.597 31.7199 104.587 31.7844 104.538C31.7861 104.536 31.7877 104.536 31.7902 104.534C32.5296 103.984 32.9548 103.06 33.1947 101.945C33.4353 100.828 33.4742 97.8453 33.4742 97.8453L34.7033 96.9838C34.7033 96.9838 35.0076 96.6691 35.3211 96.3037H35.3228C35.6693 95.8975 36.0275 95.4297 36.0068 95.2425C35.9679 94.8845 33.102 94.6406 33.102 94.6406L30.5893 96.4661L30.3809 96.6192C30.3809 96.6192 30.5537 97.1819 30.6248 97.3983C30.6968 97.6172 30.6273 97.8669 30.6281 98.0126C30.629 98.0917 30.557 98.9057 30.4942 99.6374C30.4363 100.258 30.385 100.815 30.385 100.815Z" fill="#FAC5A8"/>
<path d="M26.7788 101.744C27.2064 102.133 28.6886 104.265 29.2022 104.563C29.7159 104.861 30.447 105.249 30.916 105.135C31.1294 105.08 31.4718 104.843 31.7836 104.539C31.7853 104.537 31.7869 104.537 31.7894 104.535C32.5288 103.985 32.954 103.061 33.1938 101.946C33.4345 100.829 33.4734 97.8462 33.4734 97.8462L34.7025 96.9847C34.7025 96.9847 35.0068 96.6701 35.3203 96.3047C35.3203 96.3047 34.1169 97.2428 33.9705 97.3327C33.8241 97.4201 33.0392 97.7256 33.0392 97.7256C33.0392 97.7256 33.0681 99.0049 33.1004 99.412C33.1334 99.8207 33.1417 101.231 33.169 101.588C33.1938 101.946 32.6785 102.945 32.6785 102.945C32.6785 102.945 32.6165 103.047 32.5197 103.201C32.2766 103.588 31.8192 104.305 31.5967 104.577L31.5818 104.596C31.2816 104.952 30.5545 104.996 30.1799 104.88C29.8068 104.764 28.7879 103.688 28.4893 103.262C28.189 102.834 27.7077 102.051 27.7077 102.051L27.1221 100.945C26.8202 101.323 26.6548 101.629 26.7788 101.744Z" fill="#F8D1BC"/>
<path d="M35.9171 95.3132C35.9171 95.3132 35.0354 96.1714 34.6731 96.2729C34.3109 96.3745 33.7013 95.9675 33.7013 95.9675L32.5599 95.9841L30.8379 96.2846L33.1 94.6406C33.1 94.6406 34.8592 94.8546 35.4605 94.9786C36.0627 95.1034 35.9171 95.3132 35.9171 95.3132Z" fill="#F8D1BC"/>
<path d="M56.4819 80.4473L66.0241 74.9078L68.6113 38.2482L68.9107 34.068V34.0605L68.3656 34.3852L67.9356 40.4349L65.5254 74.5524L56.5282 79.7831L56.4819 80.4473ZM68.3656 34.3852L68.9107 34.068V34.0605L68.3656 34.3852ZM25.4971 99.1983L26.9709 100.218L67.5361 75.9816L67.5435 75.935L67.6585 74.5524L71.5889 28.9689L70.1067 27.9492L28.8352 51.9309L25.4971 99.1983ZM54.2553 81.7458L57.1651 38.5262L69.0952 31.4952L69.072 31.7807L68.9107 34.0597H68.9181L66.0316 74.8995L66.0241 74.9078L68.6113 38.2482L68.9107 34.068V34.0605L68.3656 34.3852L67.9356 40.4349L65.5254 74.5524L56.5282 79.7831L56.4819 80.4473L55.3843 81.0882L54.2553 81.7458ZM42.7859 87.7639L45.6725 46.9241L55.7987 41.0367L52.9121 81.884L42.7859 87.7639ZM30.6714 95.4434L30.7177 94.7792L30.9402 91.6578L33.558 54.6036L42.5634 49.373L43.1085 49.0567L42.8165 53.2052L40.2219 89.8957L30.6714 95.4434ZM68.3656 34.3852L68.9107 34.068V34.0605L68.3656 34.3852ZM56.4819 80.4473L66.0241 74.9078L68.6113 38.2482L68.9107 34.068V34.0605L68.3656 34.3852L67.9356 40.4349L65.5254 74.5524L56.5282 79.7831L56.4819 80.4473Z" fill="#7B7F8B"/>
<path d="M26.9736 100.214L68.2525 76.2323L71.5924 28.9648L30.3135 52.9465L26.9736 100.214ZM68.9208 34.0557L66.0343 74.8955L66.026 74.903L56.4837 80.4424L56.5301 79.7782L59.3703 39.6026L67.815 34.6808L68.3675 34.3795L68.9126 34.0623V34.0548H68.9208V34.0557ZM42.8184 53.2012L40.2238 89.8916L30.6732 95.4386L30.7196 94.7743L30.9421 91.6529L33.5598 54.5988L42.5653 49.3681L43.1104 49.0518L42.8184 53.2012ZM55.8005 41.0327L52.914 81.8799L42.7878 87.759L45.6744 46.9192L55.8005 41.0327Z" fill="#C5C7CF"/>
<path d="M44.2646 46.0195L44.4003 46.1136L57.3055 38.6155L57.1691 38.5215L44.2646 46.0195Z" fill="#DBDCE0"/>
<path d="M44.4027 46.1128L41.2598 90.5626L41.8048 90.2454L54.1642 83.0678L57.3072 38.6172L44.4027 46.1128ZM45.6781 46.921L55.8043 41.0336L52.9161 81.8825L42.7907 87.7616L45.6781 46.921Z" fill="#E8E9F0"/>
<path d="M28.3545 98.0592L28.8541 98.4072L30.2585 93.8483L30.9417 91.6541L33.5594 54.6008L42.5649 49.3701L43.1099 49.053L42.818 53.2024L44.899 46.4651L44.3994 46.1172L31.4942 53.6119L28.3545 98.0592Z" fill="#9497A1"/>
<path d="M30.1748 95.0904L30.7199 94.7733L30.9424 91.6518L33.5601 54.5985L42.5656 49.3679L42.6119 48.6953L33.0614 54.2431L30.2592 93.846L30.1748 95.0904Z" fill="#FFFEFF"/>
<path d="M54.166 83.0612L54.6648 83.4091L55.3868 81.0835L56.07 78.8502L56.7532 76.6561L59.371 39.6027L67.8156 34.6809L68.3681 34.3796L67.9381 40.4293L68.6138 38.2426L68.6295 38.2044L70.7097 31.4671L70.2109 31.1191L69.0745 31.7759L57.3057 38.6139L54.2578 81.7402L54.166 83.0612Z" fill="#9497A1"/>
<path d="M57.3057 38.6152L57.8069 38.9615L70.7113 31.4643L70.2101 31.1172L57.3057 38.6152Z" fill="#DBDCE0"/>
<path d="M55.9854 80.0963L56.5304 79.7791L56.7529 76.6577L59.3707 39.6044L67.8154 34.6825L68.3679 34.3812L68.4142 33.7012L58.8719 39.249L56.0697 78.8519L55.9854 80.0963Z" fill="#FFFEFF"/>
<path d="M42.6057 48.6992L39.7174 89.5423L30.1719 95.0893L30.219 94.4234L39.2162 89.1952L42.0573 49.0172L42.6057 48.6992Z" fill="#9497A1"/>
<path d="M55.799 41.0312L52.9108 81.8752L42.7871 87.7568L42.8343 87.0917L52.4088 81.5281L55.2498 41.35L55.799 41.0312Z" fill="#9497A1"/>
<path d="M42.8326 87.0921L42.7871 87.758L52.9108 81.8764L52.4088 81.5293L42.8326 87.0921Z" fill="#DBDCE0"/>
<path d="M68.4152 33.7031L65.527 74.5463L55.9814 80.0932L56.0278 79.4273L65.0258 74.1991L67.866 34.0211L68.4152 33.7031Z" fill="#9497A1"/>
<path d="M31.9936 53.9548L28.8506 98.4047L41.7558 90.9108L44.8988 46.4609L44.3538 46.7772L31.9936 53.9548ZM33.5609 54.5933L43.1106 49.0463L40.2232 89.8869L30.6735 95.4339L33.5609 54.5933Z" fill="#F4F5FA"/>
<path d="M57.8041 38.9604L54.6611 83.4102L67.5424 75.9313L67.5656 75.9155L70.7085 31.4648L57.8041 38.9604ZM59.3715 39.598L67.817 34.6837L68.3687 34.3748L68.922 34.0502L66.0346 74.8909L56.4849 80.4378L59.3715 39.598Z" fill="#F4F5FA"/>
<path d="M43.1084 49.0469L40.2202 89.89L30.6738 95.437L30.721 94.7711L39.7182 89.5429L42.5592 49.3648L43.1084 49.0469Z" fill="#9497A1"/>
<path d="M30.7195 94.772L30.6748 95.4379L40.2195 89.8901L39.7175 89.543L30.7195 94.772Z" fill="#DBDCE0"/>
<path d="M68.9172 34.0488L66.0298 74.8928L56.4834 80.4397L56.5305 79.7739L65.5277 74.5457L68.3688 34.3676L68.9172 34.0488Z" fill="#9497A1"/>
<path d="M56.5299 79.7759L56.4844 80.4418L66.0299 74.894L65.5279 74.5469L56.5299 79.7759Z" fill="#DBDCE0"/>
<path d="M58.6861 81.6113L58.3131 81.5048L57.7217 81.0861L58.2039 80.0947L59.8002 79.5412L60.8564 78.8811L61.2575 77.67L60.4081 77.4935L60.1988 77.0032L60.7125 76.7402L63.9109 77.4935L62.1979 79.9233L60.7638 81.1169L58.6861 81.6113Z" fill="#7B7F8B"/>
<path d="M68.3675 34.375L65.5264 74.5522L56.5342 79.7729L56.5813 79.107L65.0277 74.2035L67.8208 34.6921L68.3675 34.375Z" fill="#9497A1"/>
<path d="M55.2505 41.3574L52.4095 81.5355L42.835 87.0991L42.8821 86.4332L51.9107 81.1859L54.7038 41.6737L55.2505 41.3574Z" fill="#9497A1"/>
<path d="M42.56 49.3711L39.7189 89.5492L30.7217 94.7773L30.7688 94.1114L39.2201 89.2004L42.0132 49.6882L42.56 49.3711Z" fill="#9497A1"/>
<path d="M31.4951 53.6172L31.9963 53.9643L44.9016 46.4662L44.3995 46.1191L31.4951 53.6172Z" fill="#DBDCE0"/>
<path d="M56.6286 60.7969L56.4756 61.0433L56.2324 64.4851L56.4103 64.59L57.024 64.2179L57.1315 63.8983L56.6286 60.7969Z" fill="#C5C7CF"/>
<path d="M56.6279 60.7963L56.7876 60.9072L57.4782 60.5054L57.3177 60.3945L56.6279 60.7963Z" fill="#C5C7CF"/>
<path d="M56.5469 64.3148L56.7876 60.9071L57.4782 60.5059L57.2367 63.9136L56.5469 64.3148Z" fill="#E0F7FF"/>
<path d="M56.6292 60.7969L56.7889 60.9076L56.5482 64.3153L56.3877 64.2046L56.6292 60.7969Z" fill="#9497A1"/>
<path d="M56.8137 62.3379L56.7822 62.7832L57.2777 63.1278L57.3091 62.6833L56.8137 62.3379Z" fill="#9497A1"/>
<path d="M57.3088 62.6823L57.2773 63.1275L57.6702 62.8974L57.7016 62.4531L57.3088 62.6823Z" fill="#A21B00"/>
<path d="M57.3099 62.6825L56.8145 62.3366L57.2065 62.1074L57.7027 62.4533L57.3099 62.6825Z" fill="#C5C7CF"/>
<path d="M60.1968 61.4395L60.1588 61.973L57.6328 63.4521L57.6709 62.9194L60.1968 61.4395Z" fill="#E0F7FF"/>
<path d="M57.6704 62.921L57.6324 63.4521L57.2031 63.1549L57.2404 62.623L57.6704 62.921Z" fill="#9497A1"/>
<path d="M57.6703 62.9197L60.1963 61.4397L59.767 61.1426L57.2402 62.6217L57.6703 62.9197Z" fill="#C5C7CF"/>
<path d="M42.2165 69.1816L42.0635 69.428L41.8203 72.8699L41.9982 72.9748L42.6118 72.6027L42.7194 72.2831L42.2165 69.1816Z" fill="#C5C7CF"/>
<path d="M42.2158 69.1811L42.3763 69.2919L43.0661 68.8902L42.9056 68.7793L42.2158 69.1811Z" fill="#C5C7CF"/>
<path d="M42.1348 72.6996L42.3763 69.2918L43.0661 68.8906L42.8254 72.2984L42.1348 72.6996Z" fill="#E0F7FF"/>
<path d="M42.2171 69.1816L42.3776 69.2923L42.136 72.7001L41.9756 72.5894L42.2171 69.1816Z" fill="#9497A1"/>
<path d="M42.4006 70.7227L42.3691 71.168L42.8646 71.5126L42.896 71.0681L42.4006 70.7227Z" fill="#9497A1"/>
<path d="M42.8967 71.0671L42.8652 71.5122L43.2573 71.283L43.2887 70.8379L42.8967 71.0671Z" fill="#A21B00"/>
<path d="M42.8976 71.0673L42.4014 70.7214L42.7942 70.4922L43.2897 70.8381L42.8976 71.0673Z" fill="#C5C7CF"/>
<path d="M43.6959 71.0488L43.6578 71.5824L41.1318 73.0615L41.1699 72.5296L43.6959 71.0488Z" fill="#E0F7FF"/>
<path d="M41.1686 72.5304L41.1314 73.0623L40.7021 72.7643L40.7394 72.2324L41.1686 72.5304Z" fill="#9497A1"/>
<path d="M41.1685 72.5291L43.6953 71.0491L43.2652 70.752L40.7393 72.2311L41.1685 72.5291Z" fill="#C5C7CF"/>
<path d="M79.3251 115.275C79.3251 115.275 79.7271 115.732 79.785 115.968C79.8429 116.203 79.9703 116.787 79.8214 117.046C79.6725 117.305 78.6312 117.758 78.2011 117.788C77.771 117.819 77.1044 118.032 76.8298 118.162C76.5552 118.292 75.6445 119.218 74.8613 119.69C74.078 120.162 72.6736 120.526 72.1029 120.444C71.5322 120.361 71.0806 119.749 71.05 119.606C71.0186 119.465 70.9664 118.718 71.1782 118.506C71.3891 118.294 75.2525 117.078 75.2525 117.078L79.3251 115.275Z" fill="#3E362F"/>
<path d="M79.2724 113.909C79.2724 113.909 79.6479 115.45 79.6082 115.971C79.5685 116.492 78.0036 117.003 77.1054 117.601C76.2071 118.201 74.6886 119.433 73.2858 119.812C71.8831 120.192 71.0932 119.714 71.1006 118.889C71.1073 118.065 72.2263 117.134 72.759 116.576C73.2925 116.017 76.2104 114.518 76.2104 114.518L77.0682 113.553L79.2724 113.909Z" fill="#524B45"/>
<path d="M82.7595 92.6816C82.7678 93.1061 82.7347 93.5556 82.6851 93.9968C82.6603 94.2132 82.6272 94.4379 82.5941 94.6543C82.4452 95.6698 82.2385 96.6271 82.2385 97.293C82.2302 99.041 81.0061 102.82 81.0061 102.82C81.0061 102.82 80.9647 104.759 80.8655 106.582C80.7745 108.397 79.6827 114.09 79.4677 114.515C79.3767 114.69 79.1616 114.881 78.8473 115.031C78.4255 115.239 77.8217 115.389 77.127 115.364C75.9194 115.331 75.5059 114.357 75.5059 114.357C75.5059 114.357 75.969 103.694 75.9277 102.712C75.9029 102.096 75.754 99.1159 75.8367 95.9695C75.878 94.3714 75.9773 92.7399 76.1758 91.3498C76.2089 91.1084 76.2503 90.8754 76.2916 90.6506C76.3082 90.5507 76.333 90.4508 76.3495 90.3593C76.6555 88.9942 77.2428 88.4198 77.9541 88.32C79.1534 88.1368 80.7083 89.3022 81.8249 90.2344C82.5197 90.8004 82.743 91.6911 82.7595 92.6816Z" fill="#355FA1"/>
<path d="M78.8486 115.03C79.1596 114.876 79.3738 114.69 79.4665 114.511C79.684 114.088 80.7774 108.397 80.8692 106.58C80.961 104.761 81.0065 102.818 81.0065 102.818C81.0065 102.818 82.2331 99.0346 82.2372 97.2908C82.2389 96.202 82.7906 94.3125 82.7616 92.6777C81.6583 93.0523 80.7567 93.5451 80.7567 93.5451C80.7567 93.5451 80.6964 96.6848 80.7146 97.4572C80.7344 98.2305 80.7485 100.44 80.3969 102.222C80.0429 104.005 80.0636 105.666 80.0107 106.35C79.9702 106.875 79.2241 112.162 78.8486 115.03Z" fill="#6C8FC2"/>
<path d="M89.4151 116.896C89.4151 116.896 89.8725 116.976 89.8493 117.495C89.8254 118.014 89.8824 118.539 89.8824 118.539C89.8824 118.539 89.5168 119.017 89.2629 119.191C89.009 119.364 88.8204 119.546 88.8204 119.546C88.8204 119.546 88.4606 121.41 87.5698 122.073C86.6791 122.736 85.5261 123.056 84.4418 122.965C83.3574 122.875 82.9778 122.19 82.9778 122.19C82.9778 122.19 82.8331 121.654 82.9166 121.332C83.0001 121.009 85.3499 119.798 85.3499 119.798L89.4151 116.896Z" fill="#3E362F"/>
<path d="M85.7267 116.17C85.7267 116.17 84.8863 118.037 84.1626 118.908C83.4389 119.779 82.8616 121.117 82.9046 121.517C82.9476 121.916 83.5572 122.656 84.9757 122.565C86.3941 122.474 87.2386 121.832 87.7754 121.16C88.3122 120.487 88.8581 118.716 89.0897 118.48C89.3212 118.245 89.7993 117.627 89.7439 117.263C89.6885 116.897 89.1806 115.17 89.1806 115.17L85.7267 116.17Z" fill="#524B45"/>
<path d="M80.7761 93.7233C80.8911 95.0185 82.6271 102.158 83.1383 104.427C83.6494 106.696 85.1258 115.966 85.4385 116.478C85.7213 116.943 86.1084 117.189 87.555 116.98C88.4293 116.857 88.9487 116.478 89.2043 116.103C89.3705 115.859 89.4226 115.616 89.3854 115.448C89.2911 115.023 90.0066 109.399 89.8858 106.966C89.7683 104.532 88.7899 102.605 88.7353 102.103C88.6807 101.601 89.6021 95.8816 90.0132 94.5765C90.4242 93.2721 90.2762 90.5503 90.2762 90.5503L88.2969 86.286L88.0885 85.834C88.0885 85.834 81.5718 88.4868 81.5999 88.7407C81.6272 88.9954 80.6611 92.4273 80.7761 93.7233Z" fill="#355FA1"/>
<path d="M89.3882 115.448C89.2939 115.022 90.0093 109.398 89.8886 106.965C89.7711 104.531 88.7927 102.604 88.7381 102.102C88.6835 101.6 89.6049 95.8808 90.016 94.5756C90.427 93.2713 90.279 90.5494 90.279 90.5494L88.2997 86.2852C88.4139 87.7451 88.6463 88.774 88.9233 90.2622C89.3832 92.7302 88.0392 100.676 88.169 101.873C88.2989 103.07 89.5594 107.032 89.2467 109.246C89.0383 110.716 88.7596 115.294 89.2079 116.103C89.3725 115.858 89.4254 115.616 89.3882 115.448Z" fill="#6C8FC2"/>
<path d="M90.0881 90.1334C90.0302 90.4914 89.9889 93.5961 85.903 94.0789C84.7782 94.2121 83.6864 94.1621 82.6856 93.9957C80.7088 93.6877 79.0794 92.9635 78.1862 92.4391C78.0042 92.3392 77.8553 92.2393 77.7396 92.1644C77.6651 92.1062 77.6072 92.0645 77.5576 92.0229C77.1771 91.69 76.6891 90.9408 76.35 90.3582C76.0936 89.9336 75.9199 89.5924 75.9199 89.5924C75.9199 89.5924 76.4658 86.0381 76.6064 81.7347C76.6643 79.7537 76.8876 77.3897 77.1109 75.417C77.1688 74.8426 77.235 74.3016 77.2929 73.8105C77.2929 73.8105 77.2929 73.8022 77.2929 73.7938C77.3425 73.4026 77.3922 73.0447 77.4335 72.7367C77.4501 72.6618 77.4501 72.5869 77.4583 72.512C77.5245 72.0126 77.5741 71.638 77.5989 71.4465C77.5989 71.3966 77.6155 71.3383 77.6237 71.2884C77.6237 71.2884 78.6328 66.4772 78.9636 65.7697C79.2118 65.237 80.3863 64.2798 81.6104 63.6472C81.9991 63.4474 82.3961 63.2726 82.7766 63.1644C84.3315 62.7066 86.3083 62.2904 87.6482 64.6294C88.9964 66.9683 89.9475 68.8995 89.9641 72.3205C89.9724 74.2517 89.8152 76.8736 89.6911 78.9879V78.9962C89.6663 79.3957 89.6498 79.7703 89.625 80.1283C89.6002 80.7109 89.5836 81.1604 89.5753 81.3851C89.5588 81.8679 89.5588 82.2342 89.5836 82.4423C89.6994 83.5244 90.146 89.7672 90.0881 90.1334Z" fill="#F7551A"/>
<path d="M90.0884 87.4868C90.0553 87.0373 89.7079 79.3045 89.6914 78.9965L89.6748 79.0131C89.7906 76.2496 89.9478 72.1793 89.9229 71.8963C89.8899 71.4718 89.4929 68.6916 88.7485 68.2255C88.0041 67.7594 86.5815 67.3182 85.6882 67.3182C84.7949 67.3182 82.7024 67.6345 81.8753 67.9592C81.4369 68.134 80.6512 69.4658 80.006 70.6727C79.485 71.6549 79.0549 72.5622 79.0052 72.6787C79.0466 72.5039 79.5015 70.7809 79.9729 69.2077C80.312 68.1007 80.6512 67.0685 80.8662 66.6939C81.4038 65.7617 83.5295 63.123 83.5295 63.123L81.6106 63.6474C81.6106 63.6474 79.9647 65.0791 79.4436 65.8616C78.9308 66.644 78.4759 72.6954 78.4759 72.6954L77.1112 75.4173L76.5322 76.566L75.9202 88.985C75.9202 88.985 75.7878 90.3002 76.1766 91.349C76.2593 91.5904 76.3751 91.8151 76.5239 92.0066C76.648 92.1647 76.8382 92.3478 77.0781 92.5226C77.0781 92.531 77.0781 92.531 77.0781 92.531C78.2112 93.355 80.4692 94.3206 82.5949 94.6535C82.9919 94.7201 83.3971 94.7617 83.7776 94.7784C86.6311 94.8783 89.038 94.0043 90.3034 92.4394C90.4606 92.2479 90.1297 87.9529 90.0884 87.4868ZM79.9564 71.7881C80.5685 70.2981 81.6271 68.9414 82.9257 68.6251C85.2002 68.0674 87.392 69.241 87.392 69.241C87.392 69.241 88.4921 69.6073 88.8477 70.1317C89.0959 70.4896 89.1868 76.1331 89.2117 79.6457L89.0049 79.9288C89.0049 79.9288 88.6492 84.6983 87.8883 85.8303C87.1274 86.9707 85.1837 86.6211 83.3971 86.2881C81.6106 85.9469 81.4535 83.0835 81.4535 83.0835L80.4857 81.7434C80.4857 81.7434 80.4527 81.502 80.3865 81.1107C80.1963 79.754 79.7165 76.5327 79.4436 74.9678C79.2947 74.1021 79.5015 72.9118 79.9564 71.7881Z" fill="#355FA1"/>
<path d="M80.5405 62.4325C80.9491 63.3098 81.4189 64.0373 81.4073 64.426C81.3932 64.8147 81.1972 66.0417 81.1972 66.0417C81.1972 66.0417 80.9813 67.1562 82.0053 67.0688C83.0317 66.9797 84.9696 66.4279 85.9051 65.7437C86.8438 65.0594 87.0481 64.3686 87.0762 64.1139C87.0878 64.0098 87.0225 63.9224 86.9364 63.7859C86.8091 63.5903 86.637 63.2956 86.5891 62.7138C86.5055 61.7308 87.8893 58.7192 87.8893 58.7192C87.8893 58.7192 86.6842 54.4916 84.3286 56.0598C82.3245 57.3899 80.6976 60.4298 80.5024 61.8481C80.4702 62.1012 80.4801 62.3018 80.5405 62.4325Z" fill="#FAC5A8"/>
<path d="M80.5407 62.4325C80.9493 63.3098 81.4191 64.0373 81.4075 64.426C81.3934 64.8148 81.1974 66.0417 81.1974 66.0417C81.1974 66.0417 80.9816 67.1562 82.0055 67.0688C83.0319 66.9798 84.9698 66.4279 85.9053 65.7437C86.844 65.0595 87.0483 64.3686 87.0764 64.1139C87.088 64.0098 87.0227 63.9224 86.9367 63.7859C86.9458 63.8891 86.9483 63.9957 86.9425 64.0914C86.916 64.4718 86.2924 64.878 85.7448 65.3733C85.1981 65.8694 83.8028 66.4462 83.4868 66.5319C83.1725 66.6169 82.2296 66.8 82.1775 66.7592C82.1246 66.7142 82.1114 65.1544 82.1122 64.7182C82.113 64.282 81.6738 63.4471 81.6738 63.4471C81.6738 63.4471 81.8368 63.1758 82.1569 63.1408C82.4786 63.1059 84.3404 61.8823 84.3404 61.8823C83.7705 61.3845 81.9625 61.5094 80.5018 61.8498C80.4704 62.1012 80.4803 62.3018 80.5407 62.4325Z" fill="#F8D1BC"/>
<path d="M79.0741 62.108C79.0741 62.108 79.1154 62.4909 79.5852 62.6091C80.1212 62.7431 80.8763 62.8064 81.5562 62.6957C82.2361 62.585 84.3841 62.0339 84.8514 61.5711C85.3187 61.1083 87.1143 58.2474 86.9638 57.5249C86.8132 56.8024 87.7363 53.8433 86.4973 53.2049C85.2591 52.5656 82.9813 52.0887 81.7952 53.3572C80.6092 54.6257 80.1377 56.273 80.1377 56.273C80.1377 56.273 80.1989 56.9472 80.1493 57.1587C80.0997 57.3701 79.0741 58.3423 79.0567 58.4048C79.0393 58.4672 79.1394 58.7227 79.1758 58.8401C79.2122 58.9574 79.4727 59.1347 79.4727 59.1347L79.2527 60.1036L79.3528 60.3592L79.0906 60.7146L79.1741 61.0442L79.0741 62.108Z" fill="#FAC5A8"/>
<path d="M79.4463 58.4751C79.4463 58.4751 80.5133 59.2143 80.6489 59.0619C80.7845 58.9096 80.5811 58.2862 80.5596 58.2404C80.5389 58.1946 80.8813 57.2124 80.8441 57.16C80.806 57.1067 79.457 58.2795 79.4463 58.4751Z" fill="#FFD4BD"/>
<path d="M81.8755 54.0466C81.8755 54.0466 83.9259 54.3579 84.1029 54.6534C84.279 54.9489 84.045 56.4522 84.1682 57.0315C84.2915 57.6117 84.4254 58.5173 84.3965 58.9202C84.3675 59.3231 83.5074 60.1563 82.844 60.2529C82.1807 60.3502 81.3511 59.9082 81.1526 59.4088C80.9541 58.9102 81.8474 58.8245 82.3494 58.7929C82.8515 58.7621 83.0673 58.7629 83.2948 58.6405C83.5231 58.519 83.7232 57.7815 83.5264 57.3312C83.3295 56.8817 82.146 56.2474 81.9756 56.23C81.8052 56.2125 81.1609 56.041 80.9102 55.947C80.6588 55.8554 81.4801 53.9484 81.8755 54.0466Z" fill="#FFD4BD"/>
<path d="M84.6768 55.513C84.6768 55.513 84.3179 56.9405 84.351 57.2443C84.384 57.5481 84.5338 58.9357 84.5338 58.9357L85.0019 59.2562C85.0019 59.2562 86.0788 58.0883 86.5924 58.5328C87.106 58.9773 86.6131 61.0974 86.6321 61.273C86.6511 61.4487 86.719 61.8107 86.719 61.8107C86.719 61.8107 89.4765 58.6519 89.881 56.3145C90.2854 53.9772 87.8049 52.5539 86.8612 51.9146C85.9175 51.2753 84.2649 51.7148 83.0185 52.2068C81.7721 52.6987 81.3726 53.5394 81.4636 53.7442C81.5545 53.9489 84.6736 54.301 84.7281 54.3601C84.7827 54.4192 84.6768 55.513 84.6768 55.513Z" fill="#4A2727"/>
<path d="M58.0626 81.1135C58.07 81.1635 58.1114 81.1934 58.1933 81.1843C58.5109 81.1493 59.5505 80.8264 59.5505 80.8264L60.6423 80.3827L59.6754 81.0861L58.7639 81.5755L58.6151 81.6554L59.5836 81.7137L60.7961 81.5131C60.7961 81.5131 61.988 80.962 62.3279 80.828C62.6654 80.694 64.8497 79.3888 64.8497 79.3888C64.8497 79.3888 67.3683 80.2595 68.3467 80.5708C69.3277 80.8838 74.2381 81.7828 75.3068 81.7295C76.377 81.6762 77.1338 81.1085 77.3919 80.9837C77.6516 80.858 82.2577 78.0612 82.2577 78.0612C82.2577 78.0612 82.2949 77.8689 82.3297 77.5693C82.4033 76.9125 82.4595 75.7439 82.0667 74.9672C81.6423 74.124 79.4034 74.75 78.2512 75.2369C77.8534 75.4026 77.5871 75.5541 77.5656 75.6223C77.4829 75.8887 75.2274 77.5892 75.0768 77.6716C74.9238 77.7524 73.8246 77.8248 72.1067 77.804C70.3872 77.7815 65.284 77.4694 65.0491 77.3828C64.8142 77.2962 62.9185 76.6803 62.9185 76.6803L61.2643 76.215C61.2643 76.215 60.5827 76.1442 60.2635 76.1642C60.1923 76.1684 60.1369 76.1842 60.0972 76.2075C59.9575 76.2866 59.9889 76.4689 60.1121 76.6803C60.2709 76.9533 61.0136 77.1473 61.0136 77.1473L61.3892 77.3637L61.7175 77.5543C61.7175 77.5543 61.6696 78.3192 61.6828 78.4458C61.696 78.5706 60.3247 79.6644 60.2378 79.7343H60.2345C60.2345 79.7343 60.2312 79.7368 60.2238 79.7393C60.122 79.795 59.2883 80.237 58.7408 80.4618C58.3099 80.6407 58.0427 80.9687 58.0626 81.1135Z" fill="#FAC5A8"/>
<path d="M78.2517 75.2344C77.8538 75.4 77.5875 75.5515 77.566 75.6198C77.4833 75.8861 75.2278 77.5867 75.0773 77.6691C74.9242 77.7498 73.825 77.8222 72.1071 77.8014C70.3876 77.779 65.2844 77.4668 65.0495 77.3802L64.9072 77.8472C64.9072 77.8472 67.5779 77.7656 68.2123 77.8414C68.8467 77.9171 74.9714 77.8905 74.9714 77.8905L75.399 77.6982C75.399 77.6982 77.2467 76.0909 78.1499 75.6855C78.2699 75.6314 78.3005 75.4708 78.2517 75.2344Z" fill="#F8D1BC"/>
<path d="M62.0843 78.3351C62.0843 78.3351 62.4905 77.7458 62.4077 77.536C62.3234 77.328 61.5368 77.0508 61.5368 77.0508L60.5641 76.8552C60.5641 76.8552 60.0522 76.6437 60.0968 76.2051C59.957 76.2842 59.9885 76.4664 60.1117 76.6779C60.2705 76.9509 61.0133 77.1448 61.0133 77.1448L61.3887 77.3613L61.7171 77.5519C61.7171 77.5519 61.6691 78.3168 61.6824 78.4433C61.6956 78.5682 60.3243 79.6619 60.2374 79.7319L60.8652 79.4131L62.0843 78.3351Z" fill="#F8D1BC"/>
<path d="M59.5671 81.6415L58.7632 81.5765L58.6143 81.6565L59.5828 81.7147L60.7953 81.5141C60.7953 81.5141 61.9872 80.9631 62.3271 80.8291C62.6646 80.6951 64.849 79.3899 64.849 79.3899C64.849 79.3899 67.3675 80.2605 68.3459 80.5719C69.3269 80.8848 74.2373 81.7838 75.306 81.7305C76.3762 81.6773 77.133 81.1096 77.3911 80.9847C77.6508 80.859 82.2569 78.0623 82.2569 78.0623C82.2569 78.0623 82.2941 77.87 82.3289 77.5703C82.1395 77.6918 81.9443 77.8258 81.7408 77.974C81.7408 77.974 77.741 80.8116 76.4102 81.1978C75.0818 81.5874 75.0661 81.4417 73.029 81.0846C70.9935 80.7267 68.5105 80.2489 67.1632 79.7903C65.8125 79.3341 64.6463 79.0003 64.6463 79.0003C64.6463 79.0003 63.5355 79.9592 63.2981 80.1174C63.0632 80.2764 62.2849 80.75 62.2849 80.75L60.7449 81.4284L59.5671 81.6415Z" fill="#F8D1BC"/>
<path d="M58.0625 81.1122C58.0699 81.1622 58.1113 81.1921 58.1932 81.183C58.5108 81.148 59.5505 80.825 59.5505 80.825L60.6422 80.3814L59.6754 81.0848L58.7639 81.5742L59.7217 81.5118L60.8085 81.2179L62.0467 80.5787L60.6935 81.1513L59.7564 81.3877L59.6092 81.2587L60.83 80.5321L61.8002 79.9277L61.3717 79.9743L60.0682 80.5046L59.1096 80.8633L58.3619 81.0673C58.3619 81.0673 58.1775 81.1089 58.0625 81.1122Z" fill="#F8D1BC"/>
<path d="M77.2295 75.4139C77.2295 75.4139 77.3966 76.2913 78.27 76.8015C79.1434 77.3118 81.5701 79.0556 81.9481 78.9898C82.3261 78.9241 85.6924 76.2297 86.6584 75.1551C87.6253 74.0805 87.7262 71.2354 85.7726 70.3114C83.8198 69.3875 82.4353 69.2726 81.159 70.8175C79.8837 72.3616 77.2295 75.4139 77.2295 75.4139Z" fill="#FF862A"/>
<path d="M84.987 60.3714C84.987 60.3714 84.944 60.9333 85.5552 60.8742C86.1664 60.8151 87.1449 59.6988 87.3417 59.152C87.5394 58.6059 87.1829 57.9825 86.6048 58.1265C86.0266 58.2705 85.4957 59.0712 85.4725 59.3001C85.4493 59.5299 84.987 60.3714 84.987 60.3714Z" fill="#FFD4BD"/>
<path d="M14.2301 142.47C14.2301 142.47 13.738 142.669 13.6404 143.245C13.542 143.821 13.7231 144.156 13.7438 144.202C13.7645 144.248 14.6718 145.069 15.5816 144.872C16.4906 144.676 16.9157 144.306 17.2532 143.865C17.5907 143.425 17.9637 142.576 18.3251 142.504C18.6866 142.432 20.2911 141.546 20.5293 141.229C20.7675 140.912 20.0157 140.188 20.0157 140.188L17.0357 140.886L14.2301 142.47Z" fill="#3E362F"/>
<path d="M14.8838 139.91C14.8838 139.91 14.022 142.023 13.9244 142.454C13.8268 142.884 14.084 143.486 14.371 143.616C14.658 143.746 15.945 144.158 16.6943 143.587C17.4437 143.016 17.8085 142.318 18.4122 141.816C19.0152 141.314 20.0168 141.075 20.2269 140.648C20.4378 140.221 20.0127 138.67 20.0127 138.67L17.1468 138.871L14.8838 139.91Z" fill="#524B45"/>
<path d="M14.5765 140.331C14.5765 140.331 15.1637 141.01 16.5806 140.758C16.8659 140.707 17.1405 140.611 17.3961 140.482C18.4118 139.979 19.1504 138.996 19.224 138.497C19.3166 137.873 20.1272 127.58 20.0717 127.069C20.0163 126.558 20.1346 118.764 20.1346 118.764C20.1346 118.764 19.415 117.38 18.8782 116.392C18.7054 116.074 18.5524 115.798 18.4465 115.622C18.0156 114.895 13.8288 114.158 13.8288 114.158L13.1787 115.264C13.1787 115.264 13.1969 117.816 14.0984 120.203C14.9975 122.589 15.2762 126.045 15.1489 128.126C15.0198 130.206 14.7452 132.367 14.646 135.608C14.5451 138.85 14.5765 140.331 14.5765 140.331Z" fill="#2A5294"/>
<path d="M17.395 140.484C18.4107 139.982 19.1493 138.998 19.2229 138.499C19.3155 137.875 20.1261 127.583 20.0706 127.071C20.0152 126.56 20.1335 118.766 20.1335 118.766C20.1335 118.766 19.4139 117.383 18.8771 116.395C18.3329 117.097 17.7093 118.02 16.9922 119.2C16.9922 119.2 17.5174 120.085 17.5943 122.272C17.6696 124.461 17.7002 127.104 17.7093 127.781C17.7167 128.459 16.9971 130.702 17.1419 132.623C17.2329 133.831 17.2668 137.666 17.395 140.484Z" fill="#6C8FC2"/>
<path d="M26.2209 147.482L26.8205 147.723L26.8974 148.433C26.8974 148.433 26.8569 148.841 26.4988 149.309C26.1406 149.776 25.2697 150.476 24.3119 150.744C23.3541 151.01 22.2822 151.039 22.2822 151.039L21.5916 151.405L21.4659 151.799C21.4659 151.799 19.6537 152.692 18.9267 152.76C18.1997 152.827 17.4759 152.011 17.2716 151.743C17.0665 151.475 17.0136 150.669 17.1699 150.542C17.3254 150.417 19.2269 150.196 19.2269 150.196L22.9811 149.639L26.2209 147.482Z" fill="#3E362F"/>
<path d="M22.0121 146.815L24.6125 146.529C24.6125 146.529 26.1691 146.682 26.5413 147.158C26.9135 147.634 26.82 147.826 26.7985 148.083C26.7282 148.914 25.3329 149.882 24.9979 150.048C24.663 150.213 21.6441 150.924 21.6441 150.924C21.6441 150.924 19.6532 152.03 18.97 151.944C18.2869 151.857 17.4796 151.518 17.2307 150.997C16.9817 150.475 17.4631 149.848 17.4631 149.848L19.1851 148.821L22.0121 146.815Z" fill="#524B45"/>
<path d="M26.6906 118.517C26.6906 119.267 26.6493 120.099 26.5583 120.931C26.2936 123.362 24.3996 132.51 24.1266 134.907C23.8619 137.312 23.1093 146.402 22.8942 147.06C22.8115 147.309 22.5882 147.609 22.2822 147.909C21.7942 148.391 21.0911 148.866 20.3716 149.124C19.2136 149.54 17.8489 149.357 17.8241 149.116C17.7993 148.874 16.9887 140.534 17.7083 136.047C18.4196 131.561 17.9813 121.298 17.9813 121.298L17.8572 120.099C17.8572 120.099 17.3692 119.816 16.8978 119.058C16.815 118.925 16.7323 118.775 16.6496 118.609C16.418 118.134 16.203 117.519 16.0955 116.753C15.7315 114.231 21.9431 111.176 21.9431 111.176L26.0207 115.363L26.4508 115.804L26.6244 115.987C26.6244 115.987 26.641 116.17 26.6575 116.486C26.6658 116.694 26.6741 116.952 26.6823 117.252C26.6989 117.618 26.6989 118.051 26.6906 118.517Z" fill="#355FA1"/>
<path d="M26.7789 101.743C27.2065 102.131 28.6886 104.263 29.2022 104.561C29.7159 104.859 30.4471 105.248 30.916 105.133C31.1294 105.079 31.4718 104.842 31.7836 104.538C31.7853 104.535 31.787 104.535 31.7894 104.534C32.1608 104.175 32.4916 103.726 32.5239 103.389C32.5297 103.334 32.5264 103.271 32.5189 103.2C32.4255 102.482 31.6315 101.052 31.2617 100.461C31.1104 100.222 30.8126 99.9215 30.4925 99.6368C29.9442 99.1465 29.3379 98.7012 29.3379 98.7012C29.3379 98.7012 27.8433 100.03 27.1204 100.944C26.8202 101.321 26.6548 101.628 26.7789 101.743Z" fill="#FAC5A8"/>
<path d="M32.2332 96.1904C32.2332 96.1904 31.9065 96.8438 32.5996 97.131C33.2927 97.4181 33.8245 96.9969 33.8245 96.9969C33.8245 96.9969 34.6657 95.9848 34.7186 95.7001C34.7724 95.4154 35.2265 94.2759 35.2265 94.2759C35.2265 94.2759 35.6739 93.8514 35.5598 93.5734C35.4456 93.2953 35.1537 93.158 34.8295 93.3869C34.5052 93.6158 34.2042 94.1702 34.1893 94.2559C34.1744 94.3417 33.8527 94.9834 33.8527 94.9834C33.8527 94.9834 32.923 95.3397 32.2332 96.1904Z" fill="#FAC5A8"/>
<path d="M24.255 83.1871C24.255 83.1871 25.9207 81.0887 26.2383 80.9821C26.556 80.8756 27.2309 80.2205 27.4401 79.9308C27.6494 79.6412 27.7006 79.2241 27.7006 79.2241L28.4475 78.3427C28.4475 78.3427 29.4632 77.9406 29.4028 77.6085C29.3424 77.2764 29.1828 77.1357 28.7957 77.2273C28.4086 77.318 27.0778 78.1421 27.0778 78.1421L26.7809 77.9564L27.0232 76.4165C27.0232 76.4165 27.9273 74.1017 27.962 73.867C27.9967 73.6331 27.6973 73.5323 27.6047 73.5673C27.5121 73.6014 27.2193 74.0093 27.2193 74.0093L26.7652 74.9307L26.4228 75.0831L26.0746 75.6607C26.0746 75.6607 25.0796 77.6951 25.0126 78.187C24.9456 78.6789 22.5801 83.0556 22.5801 83.0556L24.255 83.1871Z" fill="#FAC5A8"/>
<path d="M27.4266 97.457C26.9138 100.287 26.1611 103.908 26.219 104.407C26.2273 104.449 26.2273 104.507 26.2356 104.59C26.3431 106.039 26.7401 113.38 26.7897 113.871C26.8476 114.379 26.9469 115.886 26.9469 115.886C26.9469 115.886 26.8642 116.127 26.6574 116.485C26.5747 116.627 26.4672 116.793 26.3348 116.96C26.1363 117.218 25.8716 117.501 25.5491 117.784C24.7551 118.466 23.5475 119.124 21.7361 119.365C19.9579 119.598 18.1631 119.215 16.6495 118.608C14.5321 117.767 12.9854 116.51 12.8696 115.977C12.7042 115.228 13.0433 109.227 13.1012 105.947C13.1095 105.872 13.1095 105.814 13.1095 105.772C13.126 105.115 13.126 104.574 13.1012 104.233C12.9854 102.21 11.9102 94.0942 11.9102 94.0942C11.9102 94.0942 11.1245 89.4911 13.002 88.1593C14.8795 86.8192 19.6436 88.7836 19.6436 88.7836C19.6436 88.7836 23.167 90.7564 23.9197 91.2225C24.0355 91.2974 24.2174 91.3973 24.4242 91.5222L24.5483 91.5971L25.1272 91.955L25.6814 92.2963C26.6987 92.9372 27.7574 93.678 27.8898 94.0609C27.9725 94.3189 27.7491 95.7423 27.4266 97.457Z" fill="#F7551A"/>
<path d="M26.6902 117.243L26.6819 117.252C26.5661 117.393 26.4089 117.551 26.2187 117.726C25.1518 118.7 23.0178 120.007 20.0651 119.707C18.8493 119.582 17.7988 119.349 16.8973 119.058C15.2266 118.517 14.0852 117.768 13.3408 117.135C12.1994 116.161 12.6543 113.081 12.6874 112.107C12.7122 111.258 13.0182 107.005 13.1009 105.948C13.1092 105.873 13.1092 105.815 13.1092 105.773C13.1174 105.74 13.1175 105.715 13.1175 105.715L13.4814 104.308C13.4814 104.308 13.3408 100.704 12.8611 96.7584C12.3813 92.8129 12.9272 89.6749 13.8949 88.6344C14.8626 87.594 15.4085 87.7188 17.071 87.9852C15.8386 88.2349 14.7882 89.2587 14.4491 92.0055C14.1017 94.7524 14.722 103.859 14.722 103.859L18.2703 105.49C18.2703 105.49 17.7575 96.0509 19.4779 93.5787C21.1982 91.1066 24.4239 91.5228 24.4239 91.5228L24.548 91.5977L25.1269 91.9556L25.6811 92.2969C25.6811 92.2969 24.2833 92.3968 21.8516 94.0615C19.4282 95.7263 20.2388 105.715 20.2388 105.715C20.2388 105.715 20.2388 105.865 21.4629 105.89C22.3065 105.898 24.2585 105.274 25.3916 104.891C25.8961 104.716 26.2352 104.591 26.2352 104.591L26.6984 109.028C26.6984 109.028 26.8556 109.61 26.9714 112.008C27.0872 114.405 27.4759 116.311 26.6902 117.243Z" fill="#355FA1"/>
<path d="M26.2194 104.408C26.2276 104.45 26.2276 104.508 26.2359 104.591C26.2359 104.591 25.8968 104.716 25.3923 104.891C25.4005 104.275 25.4253 103.659 25.3592 103.043C25.3509 102.951 24.2178 97.9488 24.2178 97.9488L26.0291 95.0938C26.0291 95.0938 26.6081 96.076 27.4269 97.4577C26.9141 100.288 26.1615 103.909 26.2194 104.408Z" fill="#B87A56"/>
<path d="M26.6907 117.242C27.4764 116.31 27.0877 114.404 26.9719 112.006C26.8561 109.609 26.6989 109.026 26.6989 109.026L26.2358 104.59C26.2358 104.59 25.8967 104.715 25.3921 104.89C25.3756 105.456 25.3756 106.013 25.4583 106.563C25.541 107.079 25.5824 107.628 25.723 108.127C25.8222 108.485 25.9628 108.752 25.9794 109.135C26.0207 110.3 25.9711 111.457 26.0869 112.622C26.1944 113.654 26.4425 114.745 26.4508 115.802C26.4508 116.085 26.4343 116.368 26.3929 116.643C26.3764 116.743 26.3516 116.851 26.335 116.959C26.2771 117.2 26.1531 117.95 26.1365 118.249V118.307C26.0207 120.946 25.5906 124.076 25.5906 124.076L23.3575 132.524C23.3575 132.524 23.2334 139.708 23.1672 141.264C23.1259 142.297 22.6213 145.726 22.2822 147.907C22.5883 147.607 22.8116 147.307 22.8943 147.058C23.1093 146.4 23.862 137.311 24.1267 134.905C24.3996 132.508 26.2937 123.36 26.5583 120.929C26.6493 120.097 26.6907 119.265 26.6907 118.516C26.699 118.049 26.6989 117.617 26.6824 117.25L26.6907 117.242Z" fill="#6C8FC2"/>
<path d="M30.3847 100.816C30.3847 100.816 30.4046 100.943 30.4409 101.155C31.115 101.317 31.8197 101.441 31.8197 101.441C31.8197 101.441 31.7916 99.5799 31.7924 99.45C31.7941 99.3218 32.0033 97.5381 32.0033 97.5381L31.8561 97.0836L31.5972 96.5983C31.5972 96.5983 30.9041 96.6857 30.5873 96.4668L30.3789 96.6199C30.3789 96.6199 30.5518 97.1826 30.6229 97.3991C30.6949 97.618 30.6254 97.8677 30.6262 98.0134C30.627 98.0924 30.5551 98.9065 30.4922 99.6382C30.436 100.258 30.3847 100.816 30.3847 100.816Z" fill="#FAC5A8"/>
<path d="M24.3008 95.6066C24.3008 95.6066 23.6705 97.1931 24.7151 99.4364C25.7606 101.679 26.4835 103.311 26.9111 103.264C27.3387 103.218 28.2576 103.408 29.2559 102.555C30.2542 101.703 30.7819 100.863 30.8597 99.9866C30.9366 99.1101 30.0342 97.5943 29.4767 96.2991C28.9193 95.004 28.289 93.9777 27.5488 93.6397C26.8085 93.3018 24.8557 94.5129 24.3008 95.6066Z" fill="#FF862A"/>
<path d="M16.4797 89.617C16.6567 89.7743 17.0446 90.2488 18.8634 90.5975C20.3241 90.8789 21.9601 90.7657 22.5465 90.7091C22.6896 90.6974 22.7715 90.6866 22.7715 90.6866C22.7715 90.6866 22.8997 89.349 22.9253 89.135C22.9501 88.9228 23.252 88.1479 23.252 88.1479C23.252 88.1479 23.9898 87.889 24.1552 87.6151C24.1569 87.6126 24.1569 87.6126 24.1569 87.6126C24.3198 87.3355 25.0303 85.7556 25.0303 85.7556C25.0303 85.7556 25.4091 84.6485 25.4306 84.567C25.4546 84.4829 25.7474 82.8855 25.7474 82.8855C25.7474 82.8855 25.7433 82.7074 25.8731 81.289C26.0021 79.8698 25.1552 78.752 25.1552 78.752L23.276 79.9264L19.3812 82.4852C19.3812 82.4852 17.6319 84.696 17.7303 85.6058C17.8287 86.5156 17.6509 86.6471 17.2853 87.5743C16.9222 88.5033 16.4731 88.2136 16.3458 88.3726C16.2176 88.5316 16.3027 89.458 16.4797 89.617Z" fill="#FAC5A8"/>
<path d="M22.5479 90.7111C22.6909 90.6995 22.7728 90.6887 22.7728 90.6887C22.7728 90.6887 22.901 89.351 22.9267 89.1371C22.9515 88.9248 23.2534 88.1499 23.2534 88.1499C23.2534 88.1499 23.9911 87.891 24.1566 87.6172C24.1061 87.648 23.5528 87.9152 23.1127 87.9635C22.8034 87.9976 22.7042 88.8558 22.7042 88.8558C22.7042 88.8558 22.5569 89.8205 22.5479 90.7111Z" fill="#F8D1BC"/>
<path d="M24.2742 83.6622C24.2742 83.6622 23.4975 83.4566 22.9078 84.3772C22.3172 85.2978 21.6001 86.3774 21.5505 86.5122C21.5009 86.6471 20.5282 86.9958 20.3487 86.9667C20.1693 86.9376 18.6466 86.9518 18.6466 86.9518L17.7078 86.4914C17.7078 86.4914 17.0379 84.3913 16.932 83.564C16.8261 82.7357 16.2554 79.5369 17.1867 78.0628C18.118 76.5878 20.9988 75.9327 22.376 76.2016C23.7531 76.4704 25.179 77.4277 25.5768 77.9496C25.9747 78.4715 25.9085 80.7872 25.8845 81.1143C25.8605 81.4414 25.5454 82.6517 25.5454 82.6517L25.1385 83.3417L25.0078 84.5029L24.6066 84.6519C24.6066 84.6519 24.5967 83.673 24.2742 83.6622Z" fill="#4A2727"/>
<path d="M23.3952 86.2854C23.3952 86.2854 22.8179 86.1306 22.8684 85.6728C22.9188 85.215 23.4548 84.0697 23.9924 84.0414C24.5292 84.0139 23.6913 85.6803 23.3952 86.2854Z" fill="#F8D1BC"/>
<path d="M23.1705 85.1706C23.1705 85.1706 23.0869 86.2536 23.3954 86.2844C23.7039 86.3152 24.0207 85.6101 24.0497 85.4378C24.0795 85.2655 24.6013 84.384 24.3565 84.0478C24.1117 83.7115 23.4782 84.5314 23.4782 84.5314L23.1705 85.1706Z" fill="#FFD4BD"/>
</svg>
