<svg width="151" height="131" viewBox="0 0 151 131" fill="none" xmlns="http://www.w3.org/2000/svg">
<path d="M57.2911 131.001L1.68193 97.6984L9.94589 93.7225L0 88.0543L9.25955 83.002L10.1484 84.6227L3.7948 88.0891L13.9213 93.8598L5.57648 97.8755L57.3081 128.857L115.169 95.3722L116.099 96.9701L57.2911 131.001Z" fill="#352C23"/>
<path d="M125.944 92.5705C131.651 95.8568 140.932 95.8399 146.674 92.5327C152.416 89.2265 152.445 83.8816 146.739 80.5963C141.033 77.31 131.751 77.3269 126.009 80.6341C120.267 83.9403 120.238 89.2852 125.944 92.5705Z" fill="#E6DFDA"/>
<path d="M119.91 46.583C119.916 46.6238 119.936 46.6586 119.963 46.6845C120.025 46.7541 120.126 46.783 120.126 46.783C120.126 46.785 120.126 46.785 120.125 46.7879C120.119 46.8257 120.076 47.0516 120.179 47.1242C120.286 47.2058 120.805 47.0198 120.805 47.0198C120.805 47.0198 120.843 47.0815 121.121 47.1163C121.4 47.1511 121.662 46.8317 121.689 46.5661C121.716 46.2984 122.327 45.8965 122.327 45.8965C122.327 45.8965 122.678 45.8427 122.858 45.8736C123.039 45.9044 123.468 45.983 123.468 45.983L123.466 45.986C123.424 46.0348 122.85 46.7253 122.719 47.0247C122.715 47.0417 122.706 47.0596 122.699 47.0745C122.691 47.0964 122.689 47.1183 122.691 47.1312C122.699 47.1859 122.717 47.2367 122.739 47.2794C122.8 47.3869 122.908 47.4496 123.053 47.4068C123.258 47.3451 124.332 46.1641 124.332 46.1641L125.639 46.2556C125.639 46.2556 126.129 46.773 126.224 46.8844C126.318 46.9959 126.675 47.7381 126.701 47.9083C126.714 47.9898 126.841 48.1669 126.99 48.3321C127.15 48.5062 127.331 48.6694 127.437 48.7062C127.611 48.7709 127.779 48.6535 127.89 48.4883C127.911 48.4595 127.928 48.4286 127.944 48.3958C128.05 48.1868 127.84 46.8974 127.793 46.586C127.745 46.2716 127.952 45.7751 127.967 45.1134C127.982 44.4518 128.38 43.42 128.38 43.42C128.309 43.2937 128.236 43.1832 128.156 43.0867C127.229 41.9077 125.912 42.6738 125.819 42.7047C125.716 42.7385 125.306 43.0459 125.209 43.5544C125.112 44.0648 124.808 44.1115 124.667 44.1513C124.528 44.1911 123.283 44.3901 123.254 44.3941C123.226 44.3981 121.68 44.7901 121.615 44.8677C121.55 44.9453 121.626 45.0617 121.626 45.0617C121.626 45.0617 119.889 46.4417 119.91 46.583Z" fill="#FAC5A8"/>
<path d="M122.737 47.2785C122.798 47.3859 122.906 47.4486 123.051 47.4058C123.256 47.3441 124.329 46.1631 124.329 46.1631L125.637 46.2547C125.637 46.2547 126.127 46.772 126.222 46.8835C126.316 46.9949 126.673 47.7371 126.699 47.9073C126.712 47.9889 126.838 48.166 126.988 48.3311C126.909 48.0774 126.866 47.8605 126.866 47.8605C126.866 47.8605 126.374 46.3591 126.301 46.1343C126.229 45.9104 125.911 45.4647 125.724 45.4935C125.537 45.5224 124.923 45.6905 124.541 45.9721C124.16 46.2567 123.274 47.0596 123.083 47.2327C122.973 47.3332 122.821 47.3362 122.737 47.2785Z" fill="#FAC5A8"/>
<path d="M119.963 46.6825C120.025 46.7522 120.125 46.781 120.125 46.781C120.159 46.4666 120.687 45.9831 120.851 45.8418C120.68 45.9821 120.124 46.4507 119.963 46.6825Z" fill="#FAC5A8"/>
<path d="M120.124 46.7856C120.118 46.8234 120.075 47.0493 120.178 47.1219C120.286 47.2035 120.805 47.0174 120.805 47.0174C120.805 47.0174 120.843 47.0791 121.121 47.1139C121.399 47.1488 121.662 46.8294 121.689 46.5637C121.715 46.2961 122.326 45.8941 122.326 45.8941C122.326 45.8941 122.677 45.8404 122.858 45.8712C123.038 45.9021 123.467 45.9807 123.467 45.9807L124.066 45.0554C124.066 45.0554 123.455 45.0783 123.302 45.0832C123.146 45.0882 122.201 45.6006 122.096 45.7329C121.99 45.8653 121.629 46.3001 121.558 46.5349C121.486 46.7697 121.35 46.9 121.189 46.913C121.025 46.9259 120.793 46.8751 120.798 46.8443C120.803 46.8135 120.961 46.2652 120.961 46.2652L122.116 44.9648L121.129 45.8324C121.129 45.8324 120.545 46.5219 120.554 46.5787C120.563 46.6384 120.58 47.0055 120.484 47.0204C120.389 47.0324 120.088 47.1567 120.124 46.7856Z" fill="#FAC5A8"/>
<path d="M126.647 32.3293C126.743 33.167 127.676 33.9331 128.338 34.54C128.46 34.6495 128.572 34.7559 128.67 34.8554C129.013 35.2057 129.65 35.5071 130.192 35.6434C130.639 35.7589 131.023 35.7618 131.118 35.5887C131.205 35.4305 131.653 33.6297 132.152 31.5462C132.86 28.5783 133.662 25.0373 133.658 24.8562C133.65 24.5478 132.248 19.7193 130.76 20.1391C129.268 20.56 128.201 26.6959 127.895 27.7535C127.588 28.8081 126.647 32.3293 126.647 32.3293Z" fill="#FF862A"/>
<path d="M124.936 43.3581C125.004 43.3173 126.517 42.4139 127.268 42.8487C127.576 43.0278 127.831 43.2009 128.024 43.381C128.315 43.6517 128.473 43.9322 128.476 44.2576C128.482 44.7998 130.702 38.9694 130.702 38.9694L130.179 35.5557C130.179 35.5557 129.946 34.6314 129.196 33.7608C129.052 33.5917 128.886 33.4236 128.698 33.2684V33.2664C128.189 32.8365 127.519 32.4744 126.649 32.3281C126.173 35.312 125.865 39.3296 125.766 39.8967C125.633 40.6529 124.961 43.2567 124.936 43.3581Z" fill="#FF862A"/>
<path d="M128.474 44.2577C128.48 44.7999 130.7 38.9695 130.7 38.9695L130.19 35.6424C130.637 35.7578 131.021 35.7608 131.116 35.5877C131.204 35.4295 131.652 33.6286 132.15 31.5452C131.276 29.0349 129.205 23.6284 129.122 24.29C129.018 25.1208 128.855 29.5155 128.855 29.5155L129.195 33.761L129.239 34.3201L128.697 33.2685L128.338 34.539L128.147 35.2136C128.147 35.2136 129.521 39.1964 129.439 39.5028C129.38 39.7257 128.482 42.1434 128.022 43.3821C128.314 43.6518 128.471 43.9323 128.474 44.2577Z" fill="#B87A56"/>
<path d="M128.349 85.1695C128.349 85.1695 127.79 85.3326 127.782 85.663C127.774 85.9943 128.057 86.7564 128.458 86.9574C128.858 87.1584 129.632 87.4479 130.875 87.1136C132.118 86.7783 133.316 86.0231 133.88 85.1317C134.443 84.2402 135.737 84.1108 135.856 84.1218C135.975 84.1327 138.259 83.1049 138.525 82.7448C138.792 82.3836 138.132 81.125 138.132 81.125L133.561 82.9866L128.349 85.1695Z" fill="#3E362F"/>
<path d="M127.932 84.9243C127.932 84.9243 127.68 86.962 129.779 86.8167C131.878 86.6715 133.887 84.5214 134.524 84.0557C135.162 83.5901 137.789 82.7046 138.118 82.0529C138.446 81.4012 138.093 80.8729 137.512 80.5147C136.932 80.1565 135.004 79.7715 135.004 79.7715C135.004 79.7715 130.68 81.9056 130.635 81.9902C130.59 82.0738 127.89 84.2368 127.932 84.9243Z" fill="#524B45"/>
<path d="M134.71 81.0857C135.476 81.2578 136.858 80.9773 137.588 80.633C137.81 80.5315 137.973 80.4201 138.039 80.3146C138.32 79.8639 138.653 69.4776 138.938 68.8518C139.222 68.226 138.739 58.6068 138.739 58.6068L136.372 54.0977L134.832 51.1676C134.832 51.1676 130.517 46.6216 130.579 50.9467C130.639 55.2717 131.096 57.0935 131.442 58.7879C131.788 60.4823 132.309 65.468 132.457 66.0281C132.606 66.5883 133.895 79.3754 133.934 79.6311C133.973 79.8868 133.713 80.8589 134.71 81.0857Z" fill="#355FA1"/>
<path d="M137.587 80.6352C137.81 80.5337 137.972 80.4223 138.038 80.3168C138.319 79.8661 138.653 69.4798 138.937 68.854C139.221 68.2282 138.738 58.609 138.738 58.609L136.371 54.0999C136.084 54.0501 135.908 54.0332 135.908 54.0332L136.663 61.4297C136.663 61.4297 136.863 65.4164 137.504 68.258C138.146 71.1016 137.093 75.1053 137.168 76.5489C137.218 77.5071 137.442 79.4462 137.587 80.6352Z" fill="#6C8FC2"/>
<path d="M136.976 89.1116C136.976 89.1116 136.512 89.415 136.559 89.9175C136.607 90.4199 136.825 90.809 136.825 90.809C136.825 90.809 137.845 91.6437 139.588 91.3055C141.331 90.9672 142.416 89.8558 142.59 89.0867C142.764 88.3176 143.753 85.4303 143.753 85.4303C143.753 85.4303 144.154 84.8104 144.171 84.6353C144.187 84.4612 143.862 83.6105 143.711 83.6035C143.559 83.5966 139.419 85.2462 139.419 85.2462L136.976 89.1116Z" fill="#3E362F"/>
<path d="M136.691 89.9113C136.691 89.9113 136.77 91.166 138.96 90.9919C141.15 90.8187 142.347 89.4855 142.655 88.2597C142.963 87.0339 143.289 85.441 143.592 84.9435C143.895 84.4461 143.82 83.861 143.651 83.4203C143.481 82.9805 142.875 81.5 142.869 81.4582C142.862 81.4155 139.742 81.4393 139.076 83.5645C138.408 85.6898 136.727 88.3333 136.689 88.8487C136.65 89.3641 136.691 89.9113 136.691 89.9113Z" fill="#524B45"/>
<path d="M138.698 68.0481C139.278 71.4528 139.219 81.7376 139.219 81.7376C139.219 81.7376 140.161 82.9355 141.332 82.7574C141.984 82.6579 142.656 82.3833 143.111 82.0739C143.466 81.8311 143.687 81.5665 143.655 81.3556C143.581 80.871 145.069 75.1401 145.37 72.5323C145.671 69.9246 145.074 67.7476 145.078 66.8154C145.08 65.8831 146.632 57.1454 146.84 55.454C147.048 53.7616 146.677 50.2086 146.677 50.2086C146.677 50.2086 146.455 50.1818 146.071 50.14C143.441 49.8584 133.13 48.8724 132.977 50.7101C132.804 52.8184 133.683 54.9277 134.623 55.5386C135.563 56.1545 136.816 56.3127 136.816 56.3127C136.816 56.3127 138.117 64.6434 138.698 68.0481Z" fill="#355FA1"/>
<path d="M143.11 82.0745C143.465 81.8318 143.686 81.5671 143.654 81.3562C143.58 80.8717 145.068 75.1407 145.369 72.533C145.67 69.9252 145.073 67.7483 145.077 66.816C145.079 65.8837 146.631 57.1461 146.839 55.4546C147.047 53.7622 146.676 50.2093 146.676 50.2093C146.676 50.2093 146.454 50.1824 146.07 50.1406C146.214 51.5206 146.419 53.9602 146.236 55.1392C145.97 56.8376 143.874 64.2908 144.551 68.3502C145.233 72.4106 144.444 73.1717 143.91 76.1635C143.525 78.3216 143.239 80.8408 143.11 82.0745Z" fill="#6C8FC2"/>
<path d="M130.466 50.6977C130.7 51.2747 131.746 53.1532 132.706 53.1233C133.664 53.0935 135.369 53.9402 135.825 53.8706C136.282 53.8009 140.787 54.2486 143.321 53.4577C145.857 52.6617 147.367 50.5116 147.412 50.242C147.457 49.9723 146.979 44.1668 146.961 44.0524C146.943 43.939 146.023 39.4488 146.129 37.8608C146.236 36.2719 148.282 24.8697 147.724 24.0788C147.167 23.2928 144.762 21.1248 143.218 19.8184C141.675 18.509 139.478 17.7031 139.478 17.7031C139.478 17.7031 135.471 17.8245 133.527 18.8503C131.582 19.8731 130.794 19.5667 129.832 21.2859C128.869 23.0042 128.817 28.5043 129.165 30.7798C129.334 31.8812 129.551 33.7815 129.712 35.7227L129.713 35.7316C129.888 37.8011 130.001 39.9174 129.94 41.173C129.856 42.8346 130.02 46.3965 130.208 48.6729C130.3 49.7336 130.391 50.5156 130.466 50.6977Z" fill="#F7551A"/>
<path d="M143.742 20.266C143.742 20.266 140.939 20.0491 138.832 23.9046C136.725 27.76 136.943 38.391 136.943 38.391L131.439 37.0041C131.439 37.0041 131.057 29.8733 131.439 25.977C131.821 22.0798 135.758 18.1309 135.758 18.1309L132.954 19.1298C132.954 19.1298 129.89 23.614 129.775 26.184C129.659 28.7539 130.087 36.2171 130.087 36.2171L129.775 36.4817C129.775 36.4817 129.768 42.6425 129.755 43.7827C129.742 44.9229 129.876 50.1892 130.578 51.3702C131.28 52.7581 131.675 53.758 136.506 54.357C141.339 54.956 145.434 54.0336 146.815 51.8826C147.412 50.2409 147.412 50.2409 147.412 50.2409C147.412 50.2409 147.407 46.2492 147.075 43.7827C146.743 41.3162 146.534 35.8181 146.534 35.8181C146.534 35.8181 142.728 36.2758 141.855 36.7315C140.983 37.1871 139.625 37.3672 139.625 37.3672C139.625 37.3672 138.927 25.397 141.338 23.4479C143.749 21.4998 145.006 21.3804 145.006 21.3804L143.742 20.266Z" fill="#355FA1"/>
<path d="M130.21 48.6727L137.793 44.9904L144.173 40.6435L142.09 31.875L140.717 38.8595C140.717 38.8595 133.713 42.6055 132.322 42.7408C130.932 42.8732 130.528 42.7229 130.528 42.7229L129.716 35.7314C129.89 37.8009 130.004 39.9172 129.942 41.1728C129.856 42.8334 130.022 46.3953 130.21 48.6727Z" fill="#B87A56"/>
<path d="M134.432 20.0075C134.432 20.0075 134.159 22.0432 135.362 22.5586C136.566 23.0739 139.265 22.0223 140.323 21.1189C141.382 20.2155 142.005 20.0463 141.825 19.3906C141.644 18.735 140.717 18.542 140.311 17.4167C139.905 16.2914 139.859 14.5522 139.459 13.7543C139.059 12.9563 134.42 14.9731 134.289 16.1143C134.156 17.2545 134.432 20.0075 134.432 20.0075Z" fill="#FAC5A8"/>
<path d="M124.059 49.2516C124.073 49.2536 124.087 49.2516 124.098 49.2506C124.241 49.2268 125.509 47.8876 125.509 47.8876L126.699 47.1821L125.923 47.8239L125.364 48.5492C125.364 48.5492 124.866 49.6009 124.804 50.0456C124.755 50.3998 125.027 50.5122 125.241 50.5361C125.298 50.5411 125.35 50.5431 125.39 50.5391C125.592 50.5252 126.004 49.5143 126.004 49.5143C126.004 49.5143 126.311 48.9293 127.205 48.2835C127.962 47.7373 128.302 47.7463 128.388 47.7612C128.403 47.7662 128.41 47.7672 128.41 47.7672L127.577 48.8974C127.577 48.8974 126.453 50.3222 126.28 50.8137C126.152 51.1759 126.338 51.2684 126.56 51.2933C126.635 51.3022 126.72 51.3012 126.792 51.3022C127.07 51.3042 128.281 49.5034 128.41 49.381C128.533 49.2646 129.498 48.2955 129.558 48.2348L129.355 48.783L129.244 49.0815C129.244 49.0815 128.418 50.1083 128.248 50.7033C128.074 51.2953 128.441 51.4007 128.669 51.3659C128.739 51.355 128.808 51.2863 128.869 51.1978C128.869 51.1978 128.871 51.1978 128.871 51.1948C129.007 50.9998 129.11 50.7023 129.145 50.6665C129.196 50.6167 130.448 48.8815 130.448 48.8815C130.448 48.8815 131.172 48.6547 131.506 48.4547C131.841 48.2517 132.676 47.5105 132.676 47.5105C133.545 46.9911 133.919 46.5384 134.005 46.1524C134.23 45.1564 132.539 44.6191 132.539 44.6191C132.539 44.6191 130.951 45.1216 130.512 45.1962C130.07 45.2708 127.206 45.823 127.128 45.8797C127.05 45.9355 125.232 46.8369 125.135 46.8797C125.038 46.9205 123.934 48.2736 123.934 48.2736C123.934 48.2736 123.768 48.8069 123.733 48.9581C123.702 49.0994 123.915 49.2457 124.059 49.2516Z" fill="#FAC5A8"/>
<path d="M128.971 50.754C128.971 50.754 128.935 50.9639 128.872 51.1948C129.008 50.9997 129.112 50.7023 129.146 50.6664C129.197 50.6167 130.449 48.8815 130.449 48.8815C130.449 48.8815 131.174 48.6546 131.507 48.4547C131.842 48.2517 132.677 47.5104 132.677 47.5104C133.546 46.9911 133.92 46.5384 134.006 46.1523C133.58 46.4638 133.057 46.8956 132.421 47.4607C132.421 47.4607 131.385 48.3174 131.321 48.385C131.259 48.4527 130.356 48.7372 130.295 48.8188C130.231 48.9014 128.971 50.754 128.971 50.754Z" fill="#FAC5A8"/>
<path d="M126.849 51.1188C126.769 51.1307 126.693 51.259 126.558 51.2939C126.633 51.3028 126.718 51.3018 126.79 51.3028C127.068 51.3048 128.279 49.504 128.408 49.3816C128.531 49.2652 129.496 48.2961 129.556 48.2354L129.353 48.7836L129.773 48.2006C129.773 48.2006 129.562 48.0583 129.405 48.1747C129.248 48.2941 128.197 49.3418 128.143 49.4661C128.091 49.5905 126.993 51.0969 126.849 51.1188Z" fill="#FAC5A8"/>
<path d="M125.24 50.5363C125.297 50.5413 125.349 50.5433 125.39 50.5393C125.591 50.5254 126.003 49.5145 126.003 49.5145C126.003 49.5145 126.311 48.9295 127.204 48.2837C127.962 47.7375 128.302 47.7465 128.388 47.7614C128.29 47.7365 127.922 47.644 127.86 47.653C127.789 47.6639 126.627 48.4608 126.23 49.024C125.835 49.5851 125.519 50.2319 125.446 50.3363C125.4 50.404 125.353 50.4786 125.24 50.5363Z" fill="#FAC5A8"/>
<path d="M124.059 49.2507C124.073 49.2527 124.087 49.2507 124.098 49.2497C124.241 49.2258 125.509 47.8866 125.509 47.8866L126.699 47.1812L127.401 46.7693L128.114 46.4648C128.114 46.4648 127.348 46.6469 127 46.7723C126.655 46.8967 125.21 47.7951 125.157 47.8757C125.11 47.9473 124.366 49.001 124.059 49.2507Z" fill="#FAC5A8"/>
<path d="M127.704 46.0837C127.709 46.1136 127.667 47.4289 127.755 47.7115C127.821 47.9254 127.869 48.2557 127.887 48.4875C127.908 48.4587 127.925 48.4278 127.941 48.395C128.047 48.1861 127.838 46.8966 127.791 46.5852C127.743 46.2708 127.949 45.7743 127.964 45.1127C127.979 44.451 128.377 43.4192 128.377 43.4192C128.306 43.2929 128.234 43.1824 128.154 43.0859C128.105 43.5476 128.012 44.2948 127.904 44.5983C127.742 45.049 127.7 46.0569 127.704 46.0837Z" fill="#FAC5A8"/>
<path d="M148.941 38.3926C148.915 38.499 148.89 38.6075 148.864 38.712C148.879 38.6562 148.893 38.5975 148.908 38.5398C148.919 38.4911 148.932 38.4423 148.941 38.3926Z" fill="#FAC5A8"/>
<path d="M138.033 19.5397C138.033 19.5397 136.088 22.1744 134.818 22.5236C133.548 22.8728 132.4 21.9804 132.12 21.4212C131.84 20.862 132.817 19.3547 132.817 19.3547C132.817 19.3547 137.754 18.0195 138.033 19.5397Z" fill="#F8D1BC"/>
<path d="M141.758 39.3597C141.758 39.3597 143.89 41.4014 145.693 42.4142C145.864 42.5097 146.031 42.5953 146.195 42.6709C146.438 42.7823 146.677 42.7674 146.905 42.646C146.933 42.6301 146.961 42.6142 146.989 42.5963C147.017 42.5804 147.044 42.5605 147.071 42.5396C147.071 42.5396 147.073 42.5366 147.075 42.5366L147.144 42.4819C147.167 42.462 147.189 42.4421 147.211 42.4202L147.28 42.3535C147.32 42.3097 147.36 42.265 147.402 42.2182L147.48 42.1177C147.521 42.063 147.563 42.0053 147.605 41.9426L148.287 40.5596C148.308 40.5099 148.325 40.4581 148.343 40.4094L148.561 39.7756C148.578 39.7219 148.595 39.6652 148.613 39.6095L148.662 39.4433C148.701 39.314 148.739 39.1826 148.775 39.0493C148.787 39.0075 148.797 38.9667 148.807 38.9259C148.821 38.8682 148.838 38.8075 148.852 38.7488C148.857 38.7369 148.86 38.722 148.862 38.71C148.876 38.6543 148.89 38.5956 148.905 38.5379C148.916 38.4891 148.93 38.4414 148.939 38.3906C148.968 38.2742 148.995 38.1588 149.021 38.0404C149.164 37.3847 149.282 36.7102 149.372 36.0465C149.389 35.9271 149.404 35.8107 149.416 35.6933C149.491 35.0695 149.539 34.4656 149.554 33.9074C149.557 33.8328 149.557 33.7582 149.557 33.6835C149.561 33.4776 149.558 33.2776 149.552 33.0876C149.423 29.458 148.616 24.6902 147.723 24.0783C146.831 23.4694 144.824 23.3271 143.406 24.9807C141.984 26.6323 142.291 30.6609 141.986 32.999C141.685 35.3341 141.758 39.3597 141.758 39.3597Z" fill="#FF862A"/>
<path d="M130.296 45.0956C130.296 45.0956 130.706 44.9683 131.505 46.1274C131.91 46.7134 132.067 47.2785 132.122 47.6915C132.18 48.0974 132.138 48.3601 132.138 48.3601C132.138 48.3601 144.611 44.0161 146.905 42.649C146.968 42.6092 147.024 42.5744 147.07 42.5426C147.07 42.5426 147.072 42.5396 147.074 42.5396C147.034 41.9287 146.707 41.3586 146.227 40.8681C144.992 39.6075 142.746 38.8762 141.756 39.3627C140.379 40.0373 135.457 43.2112 130.296 45.0956Z" fill="#FF862A"/>
<path d="M132.139 48.3569C132.139 48.3569 144.612 44.0129 146.905 42.6459C146.933 42.63 146.961 42.6141 146.989 42.5961C147.017 42.5802 147.044 42.5603 147.071 42.5394C147.071 42.5394 147.073 42.5364 147.075 42.5364L147.144 42.4817C147.167 42.4618 147.189 42.4419 147.211 42.42L147.28 42.3534C147.32 42.3096 147.36 42.2648 147.402 42.2181L147.48 42.1176C147.521 42.0628 147.563 42.0051 147.605 41.9425L148.287 40.5595C148.308 40.5097 148.325 40.458 148.343 40.4092L148.561 39.7755C148.578 39.7217 148.595 39.665 148.613 39.6093L148.662 39.4431C148.701 39.3138 148.739 39.1825 148.775 39.0491C148.787 39.0074 148.797 38.9666 148.807 38.9258C148.821 38.8681 148.838 38.8074 148.851 38.7487C148.856 38.7367 148.859 38.7218 148.861 38.7099C148.876 38.6542 148.89 38.5954 148.905 38.5377C148.916 38.489 148.93 38.4412 148.939 38.3905C148.968 38.2741 148.995 38.1587 149.021 38.0403C149.164 37.3846 149.282 36.71 149.372 36.0464C149.389 35.927 149.404 35.8106 149.416 35.6932C149.491 35.0693 149.539 34.4654 149.554 33.9072C149.557 33.8326 149.557 33.758 149.557 33.6834C149.561 33.4774 149.558 33.2774 149.552 33.0874C149.423 29.4578 148.616 24.69 147.723 24.0781C148.17 25.088 148.939 31.0567 148.683 32.8307C148.465 34.3709 146.831 38.8074 146.227 40.8649C146.134 41.1773 146.066 41.434 146.031 41.6191C145.968 41.9405 145.856 42.1982 145.691 42.4141C145.143 43.1384 144.026 43.42 142.292 44.2647C140.295 45.2377 133.613 47.2455 132.122 47.6893C132.181 48.0942 132.139 48.3569 132.139 48.3569Z" fill="#B87A56"/>
<path d="M133.777 21.634C133.777 21.634 134.864 21.7743 135.185 21.5793C135.505 21.3853 138.077 19.5954 138.515 19.1208C138.953 18.6462 139.023 17.6751 138.993 17.4761C138.962 17.2771 139.076 14.6833 138.522 13.356C137.969 12.0288 137.692 9.84386 136.386 9.31454C135.079 8.78622 130.333 9.24689 130.414 12.3491C130.495 15.4524 130.909 15.3887 131.109 16.319C131.31 17.2493 131.435 17.8711 131.74 18.6243C132.045 19.3795 132.952 21.2937 133.777 21.634Z" fill="#FAC5A8"/>
<path d="M136.311 12.6455C136.322 12.6872 136.851 14.6443 137.032 14.8791C137.214 15.1139 137.747 15.4542 137.763 15.5537C137.778 15.6532 137.929 15.9656 137.929 15.9656L138.435 15.7427C138.435 15.7427 138.573 14.0762 139.116 14.6632C139.659 15.2502 140.164 16.9227 140.164 16.9227C140.164 16.9227 140.717 14.0702 140.873 13.129C141.029 12.1878 141.389 9.77503 139.749 7.25979C138.109 4.74456 132.814 5.53654 131.537 7.76921C130.259 10.0019 130.261 11.0645 130.273 11.9062C130.285 12.7489 130.425 12.7151 130.425 12.7151C130.425 12.7151 130.912 13.2205 132.932 13.0733C134.952 12.925 136.192 12.2077 136.311 12.6455Z" fill="#4A2727"/>
<path d="M138.838 16.0604C138.838 16.0604 138.744 16.7827 139.242 16.727C139.74 16.6703 140.571 15.4962 140.394 14.4068C140.218 13.3173 139.187 13.8924 139.038 14.2545C138.888 14.6167 138.853 15.2724 138.874 15.4734C138.896 15.6724 138.838 16.0604 138.838 16.0604Z" fill="#FFD4BD"/>
<path d="M132.567 16.5991C132.567 16.5991 132.225 18.3015 132.248 18.4527C132.271 18.6049 133.114 18.5154 133.294 18.2935C133.474 18.0717 132.482 16.1653 132.567 16.5991Z" fill="#FFD4BD"/>
<path d="M132.272 13.2651C132.272 13.2651 132.089 15.0978 132.222 15.4659C132.355 15.834 135.93 15.5435 136.024 15.7803C136.119 16.0171 136.528 16.6539 136.391 17.1593C136.254 17.6647 134.277 17.8687 134.285 18.0219C134.293 18.1742 135.383 19.3512 135.676 19.2288C135.968 19.1064 137.618 18.0209 137.656 17.0827C137.695 16.1455 137.434 15.5833 137.283 15.4898C137.132 15.3963 136.707 15.0341 136.398 14.5376C136.089 14.0411 136.141 12.8969 135.63 12.8542C135.118 12.8104 133.723 13.3347 132.272 13.2651Z" fill="#FFD4BD"/>
<path d="M119.615 99.2062H93.3964L80.2402 92.0704L81.8094 82.5955L113.691 81.4434L119.615 99.2062Z" fill="#E6DFDA"/>
<path d="M130.945 92.6838L119.614 99.2077V65.5386L130.945 59.0137V92.6838Z" fill="#95938F"/>
<path d="M97.6719 86.5744L119.614 99.2083V65.5392L97.6719 52.9043V86.5744Z" fill="#7A746E"/>
<path d="M130.943 59.0157L119.614 65.5396L100.873 54.7484L97.6719 52.9057L100.84 51.081L109.002 46.3809L130.943 59.0157Z" fill="#F7F7F6"/>
<path d="M94.7139 53.4214L120.558 68.3039V58.9752L94.7139 44.0938V53.4214Z" fill="#8C8782"/>
<path d="M133.904 56.1696L120.558 58.9763L98.4847 46.2658L94.7139 44.0949L98.4458 41.9458L108.06 41.2871L133.904 56.1696Z" fill="#E1E1DC"/>
<path d="M122.101 50.2284L116.641 50.3628L112.505 47.9818L111.052 47.1451L116.513 47.0098L122.101 50.2284Z" fill="#FF862A"/>
<path d="M113.312 45.0462L106.884 45.5874L102.748 43.2065L109.064 42.5996L113.312 45.0462Z" fill="#8C8782"/>
<path d="M110.044 40.0684C110.044 40.0684 108.173 41.0902 107.269 42.0861C106.366 43.0821 106.209 43.4263 106.209 43.4263H107.768C107.768 43.4263 109.327 41.1638 110.231 40.739C111.135 40.3141 111.135 40.3141 111.135 40.3141L110.044 40.0684Z" fill="#322920"/>
<path d="M112.601 41.6152C112.601 41.6152 110.731 42.637 109.827 43.633C108.923 44.6289 108.767 44.9732 108.767 44.9732H110.326C110.326 44.9732 111.885 42.7107 112.789 42.2858C113.693 41.861 113.693 41.861 113.693 41.861L112.601 41.6152Z" fill="#322920"/>
<path d="M108.393 39.7542L112.882 42.4277L114.789 42.555L114.977 41.4844L109.484 38.5215L108.644 39.0389L108.393 39.7542Z" fill="#CC1F15"/>
<path d="M117.259 49.4902C116.158 49.2862 115.035 48.726 114.75 48.2395C114.703 48.1589 114.681 48.0853 114.684 48.0196C114.685 47.9987 114.87 47.3978 114.875 47.3789C114.955 47.0923 115.365 47.5689 116.227 47.7291C117.327 47.9331 117.939 47.937 118.223 48.4236C118.276 48.5151 118.993 48.5569 118.983 48.6295C118.98 48.6534 118.789 49.2723 118.78 49.2942C118.662 49.5528 118.085 49.6434 117.259 49.4902Z" fill="#CC1F15"/>
<path d="M117.446 48.8811C116.346 48.6772 115.223 48.117 114.937 47.6305C114.652 47.1439 115.314 46.9151 116.414 47.1201C117.514 47.324 118.637 47.8842 118.923 48.3707C119.208 48.8572 118.547 49.0861 117.446 48.8811Z" fill="#FF2C2A"/>
<path d="M121.599 51.4546L123.843 52.8028L125.752 52.9301L125.872 52.0844L123.629 50.8168L121.851 50.7402L121.599 51.4546Z" fill="#8C8782"/>
<path d="M121.851 50.7402L124.108 52.0864L125.872 52.0844L123.628 50.8168L121.851 50.7402Z" fill="#AAA6A2"/>
<path d="M125.675 53.6451L127.919 54.9932L129.827 55.1196L129.947 54.2749L127.704 53.0073L125.926 52.9297L125.675 53.6451Z" fill="#8C8782"/>
<path d="M125.926 52.9297L128.183 54.2759L129.947 54.2749L127.703 53.0073L125.926 52.9297Z" fill="#AAA6A2"/>
<path d="M118.436 51.5494L120.68 52.8975L122.587 53.0249L122.708 52.1792L120.465 50.9116L118.687 50.834L118.436 51.5494Z" fill="#8C8782"/>
<path d="M118.687 50.834L120.944 52.1801L122.708 52.1792L120.464 50.9116L118.687 50.834Z" fill="#AAA6A2"/>
<path d="M122.511 53.7378L124.755 55.086L126.663 55.2133L126.783 54.3686L124.54 53.1001L122.762 53.0234L122.511 53.7378Z" fill="#8C8782"/>
<path d="M122.762 53.0234L125.019 54.3696L126.783 54.3686L124.539 53.1001L122.762 53.0234Z" fill="#AAA6A2"/>
<path d="M133.904 60.6194L120.559 68.3044V58.9757L124.29 56.8266L133.904 56.168V60.6194Z" fill="#ADABA8"/>
<path d="M96.403 101.378L50.5651 128.037L3.62695 100.042L48.6308 73.8672L96.403 101.378Z" fill="#E6DFDA"/>
<path d="M13.816 99.6273L11.9346 100.711V92.7105L13.816 91.627V99.6273Z" fill="#827C5A"/>
<path d="M10.3223 99.7816L11.9344 100.71V92.7095L10.3223 91.7812V99.7816Z" fill="#474536"/>
<path d="M56.1207 123.987L54.2393 125.07V117.07L56.1207 115.986V123.987Z" fill="#827C5A"/>
<path d="M52.627 124.143L54.239 125.071V117.071L52.627 116.143V124.143Z" fill="#474536"/>
<path d="M93.5299 102.217L91.6484 103.301V95.3003L93.5299 94.2168V102.217Z" fill="#827C5A"/>
<path d="M90.0371 102.373L91.6482 103.302V95.3013L90.0371 94.373V102.373Z" fill="#474536"/>
<path d="M23.3482 3.89062V81.5127L13.0781 87.4266V9.80461L23.3482 3.89062Z" fill="#D8CFB6"/>
<path d="M6.32812 83.5381L13.0808 87.4264V9.80233L6.32812 5.91406V83.5381Z" fill="#B28B64"/>
<path d="M23.3508 3.88827L13.0808 9.80126L9.23009 7.58451L6.32812 5.91398L9.20016 4.26038L16.5982 0L23.3508 3.88827Z" fill="#F7F7F6"/>
<path d="M24.4855 39.8113L23.3482 40.4879L13.0781 46.5879V12.2303L14.0049 10.707L23.3482 36.6484L24.4855 39.8113Z" fill="#A26F4A"/>
<path d="M29.0111 35.8194L19.958 41.032V14.1315L29.0111 8.91797V35.8194Z" fill="#E8E8E8"/>
<path d="M23.583 26.7996C23.6727 27.5399 23.2378 28.4353 22.6123 28.8015C21.9858 29.1676 21.4052 28.8642 21.3155 28.1239C21.2257 27.3837 21.6606 26.4882 22.2861 26.1221C22.9116 25.7559 23.4932 26.0594 23.583 26.7996Z" fill="#689B31"/>
<path d="M22.9491 26.9368C23.005 27.3965 22.7346 27.9536 22.3466 28.1805C21.9575 28.4073 21.5964 28.2193 21.5405 27.7596C21.4846 27.2999 21.755 26.7438 22.144 26.5159C22.5321 26.2891 22.8932 26.4781 22.9491 26.9368Z" fill="#86C95A"/>
<path d="M27.6398 12.9267L21.3301 16.5592V16.1423L27.6398 12.5098V12.9267Z" fill="#8C8782"/>
<path d="M27.6398 14.953L21.3301 18.5856V18.1687L27.6398 14.5352V14.953Z" fill="#8C8782"/>
<path d="M27.6398 16.9765L21.3301 20.61V20.1922L27.6398 16.5586V16.9765Z" fill="#8C8782"/>
<path d="M27.6398 19.0009L21.3301 22.6344V22.2175L27.6398 18.584V19.0009Z" fill="#8C8782"/>
<path d="M14.0068 37.6036L19.9584 41.0312V14.1307L14.0068 10.7031V37.6036Z" fill="#8C8782"/>
<path d="M29.0115 8.91979L19.9584 14.1323L16.5646 12.1773L14.0068 10.7047L16.5387 9.24713L23.0599 5.49219L29.0115 8.91979Z" fill="#F7F7F6"/>
<path d="M15.89 63.6189L13.8789 64.777V38.1581L15.89 37V63.6189Z" fill="#E8E8E8"/>
<path d="M12.1553 63.7869L13.8791 64.7788V38.1599L12.1553 37.168V63.7869Z" fill="#8C8782"/>
<path d="M15.8902 37.0017L13.8791 38.1599L12.8965 37.5937L12.1553 37.1679L12.8885 36.746L14.1674 36.0098L15.8902 37.0017Z" fill="#F7F7F6"/>
<path d="M45.9808 47.8103L43.9697 48.9694V22.3495L45.9808 21.1914V47.8103Z" fill="#E8E8E8"/>
<path d="M42.2461 47.9783L43.9699 48.9712V22.3513L42.2461 21.3594V47.9783Z" fill="#8C8782"/>
<path d="M45.981 21.1931L43.9699 22.3513L42.9863 21.7861L42.2461 21.3593L42.9793 20.9374L44.2572 20.2012L45.981 21.1931Z" fill="#F7F7F6"/>
<path d="M54.3974 117.677L7.44824 90.6398V73.1426L54.3974 100.178V117.677Z" fill="#B76F3F"/>
<path d="M54.3974 105.803L7.44824 78.767V73.1426L54.3974 100.178V105.803Z" fill="#8B4A36"/>
<path d="M96.4026 75.748V93.2433L54.3994 117.675V100.18L96.4026 75.748Z" fill="#D9AF6A"/>
<path d="M96.4026 75.748V93.2433L54.3994 117.675V100.18L96.4026 75.748Z" fill="#D9AF6A"/>
<path d="M96.4026 75.748V81.3715L54.3994 105.803V100.18L96.4026 75.748Z" fill="#B76F3F"/>
<path d="M96.4026 75.7468L54.3995 100.179L7.44629 73.14L49.4495 48.709L96.4026 75.7468Z" fill="#EFD995"/>
<path d="M55.161 102.942L3.62891 73.2674V68.418L55.161 98.0933V102.942Z" fill="#5B5450"/>
<path d="M103.71 69.8574V74.7038L55.1621 102.941V98.0951L103.71 69.8574Z" fill="#95938F"/>
<path d="M103.71 69.8571L55.162 98.0947L3.62695 68.4174L52.1753 40.1797L103.71 69.8571Z" fill="#818181"/>
<path d="M51.7336 46.1173L48.698 45.584L9.5918 67.9525L52.3501 92.5138H55.3319L47.1816 86.0944L15.5903 67.9525L51.7336 46.1173Z" fill="#736D6A"/>
<path d="M14.0923 68.8206L55.3323 92.5124L94.2589 70.0365L94.1861 68.2625L53.1286 45.3418L53.0877 45.3657L51.734 46.1169L14.0234 67.0526L14.0923 68.8206ZM53.1087 47.264L62.6366 52.7383L63.7439 53.372L63.7469 53.378L64.3255 53.7044L64.8731 54.0168L72.9526 58.6582L72.3989 58.9776L75.8206 60.9446L42.1872 80.364L38.7644 78.397L37.2022 79.2994L17.3583 67.9053L53.1087 47.264ZM54.7936 86.9715L45.8034 81.8077L45.2557 81.4953L78.8892 62.0759L88.4261 67.5521L54.7936 86.9715Z" fill="#7B7F8B"/>
<path d="M51.8961 48.9085L59.6233 53.3898L27.6758 71.9426L29.3547 74.5235L63.6885 56.299L73.0647 61.6628L40.2074 80.3639L42.9507 81.6931L76.9613 63.189L85.5964 68.4175L53.6688 86.9554L55.1452 89.3333L88.4265 68.1847L53.5191 47.0957L51.8961 48.9085Z" fill="#736D6A"/>
<path d="M55.2664 90.7368L94.1871 68.2648L52.9451 44.582L14.0244 67.054L55.2664 90.7368ZM53.1027 47.2684L62.6366 52.7396L29.0031 72.1591L20.5636 67.3137L20.0159 67.0012L19.4742 66.6849L53.1027 47.2684ZM54.7936 86.9729L45.8034 81.8091L45.2557 81.4967L78.8891 62.0772L88.426 67.5534L54.7936 86.9729ZM42.1871 80.3654L38.7644 78.3984L32.0677 74.5569L65.7011 55.1375L72.3979 58.979L75.8196 60.946L42.1871 80.3654Z" fill="#C5C7CF"/>
<path d="M34.6855 73.0467L32.0689 74.5581L38.7657 78.3986L42.1874 80.3656L73.5244 62.2724L76.7556 61.377L78.8535 60.7949L78.8525 60.9661L42.2512 82.0988L37.2902 79.2502L29.3555 74.6964L29.3565 74.5242L34.6855 73.0467Z" fill="#9497A1"/>
<path d="M42.2502 82.1009V81.9298L29.3555 74.5254V74.6955L42.2502 82.1009Z" fill="#DBDCE0"/>
<path d="M37.4368 79.1648L42.2482 81.9288L78.8544 60.7931L78.3067 60.4806L65.9577 53.3906L29.3574 74.5234L37.4368 79.1648ZM42.1873 80.3647L38.7646 78.3977L32.0678 74.5562L65.7013 55.1368L72.3981 58.9783L75.8198 60.9453L42.1873 80.3647Z" fill="#E8E9F0"/>
<path d="M42.2531 81.2967L44.351 80.7147L44.9216 80.5565L48.6954 79.5098L45.2568 81.4957L45.8035 81.8081L54.7936 86.9719L85.3087 69.3533L87.4066 68.7713L91.7501 67.5664L91.7441 68.1992L55.1438 89.3319L42.3967 82.0131L42.2471 81.9295L42.2531 81.2967Z" fill="#9497A1"/>
<path d="M45.2559 82.1248L45.8035 81.8084L54.7937 86.9722L87.8795 67.8691L88.4262 68.1825L54.7927 87.602L45.2559 82.1248Z" fill="#FFFEFF"/>
<path d="M16.458 66.488L22.8994 64.7011L22.9204 64.6971L19.4757 66.686L20.0174 67.0024L20.5641 67.3148L29.0036 72.1602L59.4947 54.5546L61.6135 53.9686L63.7444 53.3746L63.7474 53.3805L65.958 52.7637L65.957 53.3925L29.3567 74.5252L17.5933 67.7735L16.46 67.1228L16.458 66.488Z" fill="#9497A1"/>
<path d="M29.3557 74.5255V73.8937L16.4609 66.4883V67.1201L29.3557 74.5255Z" fill="#DBDCE0"/>
<path d="M19.4639 67.3212L20.0175 67.0019L20.5642 67.3143L29.0037 72.1597L62.0895 53.0566L62.6402 53.375L29.0067 72.7945L19.4639 67.3212Z" fill="#FFFEFF"/>
<path d="M45.2559 82.1265L78.8893 62.707L88.4282 68.1852L87.8795 68.5016L78.8893 63.3388L45.8035 82.4419L45.2559 82.1265Z" fill="#9497A1"/>
<path d="M32.0713 74.5581L65.7048 55.1387L75.8212 60.9482L75.2726 61.2646L65.7048 55.7705L32.62 74.8735L32.0713 74.5581Z" fill="#9497A1"/>
<path d="M75.2739 61.2666L75.8215 60.9482L65.7051 55.1387V55.7705L75.2739 61.2666Z" fill="#DBDCE0"/>
<path d="M19.4648 67.3159L53.0983 47.8965L62.6372 53.3737L62.0895 53.6911L53.0983 48.5273L20.0135 67.6303L19.4648 67.3159Z" fill="#9497A1"/>
<path d="M42.8016 81.6102L42.9512 81.6947L55.1447 88.7042L91.7509 67.5684L78.8542 60.166L42.2539 81.2988L42.8016 81.6102ZM78.8911 62.0773L88.4279 67.5535L54.7945 86.973L45.8043 81.8092L45.2566 81.4968L78.8911 62.0773Z" fill="#F4F5FA"/>
<path d="M18.1409 67.4554L29.3577 73.8947L65.958 52.762L53.0892 45.3665L53.0643 45.3496L16.458 66.4853L18.1409 67.4554ZM62.637 52.7391L29.0036 72.1585L20.5641 67.3131L20.0164 67.0007L19.4747 66.6843L53.1022 47.2679L62.637 52.7391Z" fill="#F4F5FA"/>
<path d="M19.4668 66.6821L53.0943 47.2656L53.1032 47.2676L19.4758 66.6841L19.4668 66.6821Z" fill="#62A6BD"/>
<path d="M45.2559 81.4976L78.8893 62.0781L88.4282 67.5553L87.8795 67.8727L78.8893 62.7089L45.8035 81.812L45.2559 81.4976Z" fill="#9497A1"/>
<path d="M87.8799 67.8727L88.4275 67.5543L78.8887 62.0781V62.7089L87.8799 67.8727Z" fill="#DBDCE0"/>
<path d="M19.4648 66.6851L53.0983 47.2656L62.6372 52.7438L62.0895 53.0602L53.0983 47.8974L20.0135 67.0005L19.4648 66.6851Z" fill="#9497A1"/>
<path d="M62.0889 53.0612L62.6355 52.7428L53.0967 47.2656V47.8974L62.0889 53.0612Z" fill="#DBDCE0"/>
<path d="M20.0156 66.9995L53.1004 47.8965L62.0826 53.0593L61.535 53.3767L53.0974 48.5273L20.5613 67.3139L20.0156 66.9995Z" fill="#9497A1"/>
<path d="M32.6191 74.8706L65.7039 55.7676L75.2717 61.2617L74.7241 61.5781L65.701 56.3974L33.1638 75.184L32.6191 74.8706Z" fill="#9497A1"/>
<path d="M45.8027 81.8101L78.8885 62.707L87.8787 67.8708L87.3311 68.1872L78.8855 63.3378L46.3484 82.1245L45.8027 81.8101Z" fill="#9497A1"/>
<path d="M55.1457 89.3331V88.7023L42.25 81.2969V81.9277L55.1457 89.3331Z" fill="#DBDCE0"/>
<path d="M47.1289 63.1889L47.4052 63.1919L50.2393 61.5552L50.2254 61.3413L49.5999 60.998L49.2907 61.0737L47.1289 63.1889Z" fill="#C5C7CF"/>
<path d="M47.1288 63.1898V62.9878L46.4385 62.5918L46.4395 62.7938L47.1288 63.1898Z" fill="#C5C7CF"/>
<path d="M49.935 61.3667L47.1288 62.9865L46.4385 62.5905L49.2447 60.9707L49.935 61.3667Z" fill="#FDFDFE"/>
<path d="M47.1289 63.1889V62.987L49.9351 61.3672V61.5692L47.1289 63.1889Z" fill="#9497A1"/>
<path d="M48.2363 62.1961L48.6043 61.9842L48.6053 61.3594L48.2383 61.5703L48.2363 62.1961Z" fill="#9497A1"/>
<path d="M48.2387 61.5706L48.6048 61.3596L48.2118 61.1348L47.8457 61.3457L48.2387 61.5706Z" fill="#A21B00"/>
<path d="M48.2397 61.5706L48.2387 62.1964L47.8447 61.9705L47.8457 61.3457L48.2397 61.5706Z" fill="#C5C7CF"/>
<path d="M45.6953 59.6775L46.1343 59.4238L48.6671 60.8675L48.2292 61.1202L45.6953 59.6775Z" fill="#FDFDFE"/>
<path d="M48.2295 61.1209L48.6674 60.8672V61.4084L48.2295 61.6612V61.1209Z" fill="#9497A1"/>
<path d="M48.2292 61.1214L45.6953 59.6777V60.218L48.2292 61.6617V61.1214Z" fill="#C5C7CF"/>
<path d="M61.541 71.4555L61.8174 71.4585L64.6515 69.8218L64.6365 69.6079L64.011 69.2637L63.7028 69.3403L61.541 71.4555Z" fill="#C5C7CF"/>
<path d="M61.5409 71.4573L61.5399 71.2554L60.8506 70.8594V71.0613L61.5409 71.4573Z" fill="#C5C7CF"/>
<path d="M64.3461 69.6343L61.5399 71.2541L60.8506 70.8581L63.6568 69.2383L64.3461 69.6343Z" fill="#FDFDFE"/>
<path d="M61.541 71.4565L61.54 71.2546L64.3463 69.6348L64.3473 69.8357L61.541 71.4565Z" fill="#9497A1"/>
<path d="M62.6494 70.4617L63.0164 70.2498L63.0184 69.625L62.6514 69.8359L62.6494 70.4617Z" fill="#9497A1"/>
<path d="M62.6518 69.8362L63.017 69.6252L62.6239 69.4004L62.2588 69.6113L62.6518 69.8362Z" fill="#A21B00"/>
<path d="M62.6528 69.8362L62.6508 70.461L62.2568 70.2362L62.2588 69.6113L62.6528 69.8362Z" fill="#C5C7CF"/>
<path d="M62.2031 69.1394L62.6421 68.8867L65.1749 70.3294L64.737 70.5821L62.2031 69.1394Z" fill="#FDFDFE"/>
<path d="M64.7373 70.5828L65.1752 70.3301V70.8703L64.7373 71.1231V70.5828Z" fill="#9497A1"/>
<path d="M64.737 70.5823L62.2041 69.1387L62.2031 69.6799L64.737 71.1226V70.5823Z" fill="#C5C7CF"/>
<path d="M55.607 61.711L54.8978 61.7041C54.4688 61.126 53.8513 60.5838 53.0313 60.1122C49.6116 58.1431 44.086 58.1332 40.6872 60.0903C39.933 60.5251 39.3564 61.0215 38.9385 61.5499L38.1514 61.5419V63.6283C38.1514 63.6353 38.1514 63.6412 38.1514 63.6482V63.6552C38.1653 64.9357 39.0232 66.2172 40.7261 67.1982C44.1458 69.1672 49.6724 69.1771 53.0702 67.2201C54.7761 66.2381 55.62 64.9466 55.606 63.6562L55.607 63.6552V61.711Z" fill="#736D6A"/>
<path d="M53.0695 65.2767C49.6718 67.2328 44.1452 67.2228 40.7255 65.2548C37.3058 63.2858 37.2888 60.104 40.6866 58.1469C44.0843 56.1898 49.6109 56.1998 53.0306 58.1688C56.4503 60.1378 56.4673 63.3206 53.0695 65.2767Z" fill="#D6D6D6"/>
<path d="M52.1019 60.2752L51.6769 60.2712C51.4206 59.9259 51.0505 59.6006 50.5607 59.319C48.5146 58.141 45.2086 58.135 43.1755 59.3061C42.7236 59.5658 42.3795 59.8633 42.1291 60.1797L41.6572 60.1747V61.4233C41.6572 61.4273 41.6572 61.4313 41.6572 61.4353V61.4393C41.6652 62.2054 42.179 62.9725 43.1975 63.5585C45.2435 64.7365 48.5505 64.7425 50.5836 63.5714C51.6041 62.9834 52.1089 62.2113 52.1009 61.4393H52.1019V60.2752Z" fill="#736D6A"/>
<path d="M50.5835 62.4064C48.5504 63.5775 45.2435 63.5715 43.1974 62.3935C41.1514 61.2155 41.1414 59.3111 43.1745 58.1401C45.2075 56.969 48.5145 56.975 50.5596 58.153C52.6056 59.332 52.6166 61.2364 50.5835 62.4064Z" fill="#E7E7E7"/>
<path d="M41.7348 58.2557L39.7227 59.4138V50.8612L41.7348 49.7031V58.2557Z" fill="#E8E8E8"/>
<path d="M38 58.4227L39.7228 59.4147V50.8621L38 49.8691V58.4227Z" fill="#8C8782"/>
<path d="M41.7339 49.7039L39.7228 50.862L38.7402 50.2959L38 49.8701L38.7332 49.4472L40.0111 48.7109L41.7339 49.7039Z" fill="#F7F7F6"/>
<path d="M26.79 62.6178L28.437 63.4704L67.5742 42.1755L66.0688 41.2383L26.79 62.6178Z" fill="#FCCC45"/>
<path d="M28.4375 63.4707V64.7243L67.5746 43.4284V42.1758L28.4375 63.4707Z" fill="#A64900"/>
<path d="M26.79 62.6172V63.8698L28.437 64.7235V63.4699L26.79 62.6172Z" fill="#CE7400"/>
<path d="M65.956 42.5664L63.2236 44.1394V40.9705L65.956 39.3965V42.5664Z" fill="#E8E8E8"/>
<path d="M37.1748 29.1387L63.2236 44.1385V40.9696L37.1748 25.9688V29.1387Z" fill="#8C8782"/>
<path d="M65.956 39.3973L63.2236 40.9704L38.6273 26.8063L37.1748 25.9695L38.6123 25.1417L39.9062 24.3965L65.956 39.3973Z" fill="#F7F7F6"/>
<path d="M27.8721 52.8765L31.0414 54.5182L59.5443 39.0079L56.6473 37.2051L27.8721 52.8765Z" fill="#F7F7F6"/>
<path d="M31.041 54.5181V56.9289L59.5439 41.4196V39.0078L31.041 54.5181Z" fill="#E8E8E8"/>
<path d="M27.8721 52.877V55.2877L31.0414 56.9294V54.5186L27.8721 52.877Z" fill="#CE7400"/>
<path d="M36.2295 58.3388L33.4971 59.9128V56.7429L36.2295 55.1699V58.3388Z" fill="#E8E8E8"/>
<path d="M7.44824 44.9121L33.4971 59.913V56.743L7.44824 41.7422V44.9121Z" fill="#8C8782"/>
<path d="M36.2295 55.1698L33.4971 56.7428L8.90172 42.5797L7.44824 41.7429L8.88676 40.9141L10.1796 40.1699L36.2295 55.1698Z" fill="#F7F7F6"/>
<path d="M49.0482 60.285L47.0371 61.4441V52.8905L49.0482 51.7324V60.285Z" fill="#E8E8E8"/>
<path d="M45.3135 60.453L47.0373 61.4459V52.8924L45.3135 51.9004V60.453Z" fill="#8C8782"/>
<path d="M49.0484 51.7342L47.0373 52.8923L46.0547 52.3271L45.3145 51.9003L46.0467 51.4784L47.3256 50.7422L49.0484 51.7342Z" fill="#F7F7F6"/>
<path d="M50.8468 53.6697L46.8994 55.9422V49.6143L50.8468 47.3418V53.6697Z" fill="#E8E8E8"/>
<path d="M37.3926 50.4666L46.8985 55.9408V49.6129L37.3926 44.1387V50.4666Z" fill="#8C8782"/>
<path d="M50.8449 47.3414L46.8985 49.6139L38.8451 44.9764L37.3926 44.1397L38.8301 43.3119L41.339 41.8672L50.8449 47.3414Z" fill="#F7F7F6"/>
<path d="M45.4574 45.6834L43.4463 46.8415V43.7343L45.4574 42.5762V45.6834Z" fill="#E8E8E8"/>
<path d="M41.7227 45.8514L43.4465 46.8433V43.7361L41.7227 42.7441V45.8514Z" fill="#8C8782"/>
<path d="M45.4576 42.5779L43.4465 43.736L42.4629 43.1709L41.7227 42.7441L42.4559 42.3222L43.7338 41.5859L45.4576 42.5779Z" fill="#F7F7F6"/>
<path d="M26.79 49.5807L28.437 50.4343L67.5742 29.1384L66.0688 28.2012L26.79 49.5807Z" fill="#FCCC45"/>
<path d="M28.4375 50.4346V51.6872L67.5746 30.3923V29.1387L28.4375 50.4346Z" fill="#A64900"/>
<path d="M26.79 49.5801V50.8337L28.437 51.6864V50.4337L26.79 49.5801Z" fill="#CE7400"/>
<path d="M46.3202 43.8809L43.5879 45.4539V42.284L46.3202 40.7109V43.8809Z" fill="#E8E8E8"/>
<path d="M38 42.2334L43.5885 45.452V42.2821L38 39.0645V42.2334Z" fill="#8C8782"/>
<path d="M46.3198 40.7099L43.5885 42.2829L39.4525 39.902L38 39.0652L39.4375 38.2364L40.7314 37.4922L46.3198 40.7099Z" fill="#F7F7F6"/>
</svg>
